<svg xmlns="http://www.w3.org/2000/svg" xmlns:xlink="http://www.w3.org/1999/xlink" width="108" height="108" viewBox="0 0 108 108">
  <defs>
    <filter id="Trazado_904820" x="0" y="0" width="108" height="108" filterUnits="userSpaceOnUse">
      <feOffset dy="3" input="SourceAlpha"/>
      <feGaussianBlur stdDeviation="3" result="blur"/>
      <feFlood flood-opacity="0.161"/>
      <feComposite operator="in" in2="blur"/>
      <feComposite in="SourceGraphic"/>
    </filter>
  </defs>
  <g id="Grupo_1176342" data-name="Grupo 1176342" transform="translate(-200 -5847.127)">
    <g id="Grupo_1174761" data-name="Grupo 1174761" transform="translate(209 5853.127)">
      <g id="Grupo_1173585" data-name="Grupo 1173585" transform="translate(0 0)">
        <g id="Grupo_1173428" data-name="Grupo 1173428">
          <g id="Grupo_1171958" data-name="Grupo 1171958">
            <g id="Grupo_1167341" data-name="Grupo 1167341">
              <g id="Grupo_1166792" data-name="Grupo 1166792">
                <g transform="matrix(1, 0, 0, 1, -9, -6)" filter="url(#Trazado_904820)">
                  <g id="Trazado_904820-2" data-name="Trazado 904820" transform="translate(9 6)" fill="#e9f9fd">
                    <path d="M 44.99999618530273 88.49999237060547 C 39.12687301635742 88.49999237060547 33.43022155761719 87.35006713867188 28.06829643249512 85.08216857910156 C 22.88852119445801 82.89130401611328 18.23629570007324 79.75457763671875 14.24084663391113 75.75914001464844 C 10.24540901184082 71.76369476318359 7.108683586120605 67.11146545410156 4.917821407318115 61.93169403076172 C 2.649921178817749 56.56976699829102 1.499996185302734 50.87311553955078 1.499996185302734 44.99999237060547 C 1.499996185302734 39.12686920166016 2.649921178817749 33.43021774291992 4.917821407318115 28.06829261779785 C 7.108683586120605 22.88851737976074 10.24540901184082 18.23630523681641 14.24084663391113 14.24085521697998 C 18.23629570007324 10.24540519714355 22.88852119445801 7.108692169189453 28.06829643249512 4.917829990386963 C 33.43022155761719 2.649929761886597 39.12687301635742 1.500004887580872 44.99999618530273 1.500004887580872 C 50.87311935424805 1.500004887580872 56.56977081298828 2.649929761886597 61.93169784545898 4.917829990386963 C 67.11147308349609 7.108692169189453 71.76369476318359 10.24540519714355 75.75914764404297 14.24085521697998 C 79.75458526611328 18.23630523681641 82.89131164550781 22.88851737976074 85.08216857910156 28.06829261779785 C 87.35007476806641 33.43021774291992 88.5 39.12686920166016 88.5 44.99999237060547 C 88.5 50.87311553955078 87.35007476806641 56.56976699829102 85.08216857910156 61.93169403076172 C 82.89131164550781 67.11146545410156 79.75458526611328 71.76369476318359 75.75914764404297 75.75914001464844 C 71.76369476318359 79.75457763671875 67.11147308349609 82.89130401611328 61.93169784545898 85.08216857910156 C 56.56977081298828 87.35006713867188 50.87311935424805 88.49999237060547 44.99999618530273 88.49999237060547 Z" stroke="none"/>
                    <path d="M 44.99999618530273 2.999992370605469 C 39.32870864868164 2.999992370605469 33.82865142822266 4.11004638671875 28.65262603759766 6.299331665039062 C 23.65165710449219 8.414566040039062 19.15968322753906 11.44333648681641 15.301513671875 15.30150604248047 C 11.44333648681641 19.15967559814453 8.414566040039062 23.65164947509766 6.299339294433594 28.65262222290039 C 4.110054016113281 33.82864761352539 2.999992370605469 39.32870483398438 2.999992370605469 44.99999237060547 C 2.999992370605469 50.67127990722656 4.110054016113281 56.17132186889648 6.299339294433594 61.34736633300781 C 8.414566040039062 66.34833526611328 11.44333648681641 70.84029388427734 15.301513671875 74.69846343994141 C 19.15968322753906 78.55663299560547 23.65165710449219 81.58540344238281 28.65262603759766 83.70063781738281 C 33.82865142822266 85.88992309570312 39.32870864868164 86.99997711181641 44.99999618530273 86.99997711181641 C 50.67128372192383 86.99997711181641 56.17134094238281 85.88992309570312 61.34736633300781 83.70063781738281 C 66.34834289550781 81.58540344238281 70.84030914306641 78.55663299560547 74.69847869873047 74.69846343994141 C 78.55665588378906 70.84029388427734 81.58542633056641 66.34833526611328 83.70065307617188 61.34736633300781 C 85.88993835449219 56.17132186889648 87 50.67127990722656 87 44.99999237060547 C 87 39.32870483398438 85.88993835449219 33.82864761352539 83.70065307617188 28.65262222290039 C 81.58542633056641 23.65164947509766 78.55665588378906 19.15967559814453 74.69847869873047 15.30150604248047 C 70.84030914306641 11.44333648681641 66.34834289550781 8.414566040039062 61.34736633300781 6.299331665039062 C 56.17134094238281 4.11004638671875 50.67128372192383 2.999992370605469 44.99999618530273 2.999992370605469 M 44.99999618530273 -7.62939453125e-06 C 69.85281372070312 -7.62939453125e-06 90 20.14717864990234 90 44.99999237060547 C 90 69.85279083251953 69.85281372070312 89.99997711181641 44.99999618530273 89.99997711181641 C 20.14717864990234 89.99997711181641 -7.62939453125e-06 69.85279083251953 -7.62939453125e-06 44.99999237060547 C -7.62939453125e-06 20.14717864990234 20.14717864990234 -7.62939453125e-06 44.99999618530273 -7.62939453125e-06 Z" stroke="none" fill="#36ceef"/>
                  </g>
                </g>
              </g>
            </g>
          </g>
        </g>
      </g>
    </g>
    <g id="Fill_out_line" data-name="Fill out line" transform="translate(210.382 5856.39)">
      <path id="Trazado_1034561" data-name="Trazado 1034561" d="M104,24h43.237V69.94H104Z" transform="translate(-78.091 -7.099)" fill="#eedc9a"/>
      <path id="Trazado_1034562" data-name="Trazado 1034562" d="M144,48h34.229v5.4H144Z" transform="translate(-113.588 -28.397)" fill="#e88604"/>
      <path id="Trazado_1034563" data-name="Trazado 1034563" d="M288,352h4.5v5.4H288Z" transform="translate(-241.374 -298.167)" fill="#e44b4d"/>
      <path id="Trazado_1034564" data-name="Trazado 1034564" d="M328,288h4.5v12.611H328Z" transform="translate(-276.87 -241.374)" fill="#eebe33"/>
      <path id="Trazado_1034565" data-name="Trazado 1034565" d="M368,312h4.5v9.908H368Z" transform="translate(-312.366 -262.671)" fill="#e88604"/>
      <path id="Trazado_1034566" data-name="Trazado 1034566" d="M408,272h4.5v14.412H408Z" transform="translate(-347.862 -227.175)" fill="#349966"/>
      <path id="Trazado_1034567" data-name="Trazado 1034567" d="M63.42,209.115a3.6,3.6,0,0,1-3.6,3.6H43.6a3.6,3.6,0,0,1-3.6-3.6,9.226,9.226,0,0,0,2.7-6.524v-1.583A9.008,9.008,0,0,1,51.71,192h0a9.008,9.008,0,0,1,9.008,9.008v1.583A9.226,9.226,0,0,0,63.42,209.115Z" transform="translate(-21.298 -156.183)" fill="#ad7d4d"/>
      <path id="Trazado_1034568" data-name="Trazado 1034568" d="M51.023,374.728v.586H24v-.586a9.456,9.456,0,0,1,6.861-9.1l1.988-.569a2.7,2.7,0,0,0,1.96-2.6V360h5.4v2.466a2.7,2.7,0,0,0,1.96,2.6l1.988.569A9.462,9.462,0,0,1,51.023,374.728Z" transform="translate(-7.099 -305.267)" fill="#f4ceaf"/>
      <path id="Trazado_1034569" data-name="Trazado 1034569" d="M51.023,394.162v.586H24v-.586a9.456,9.456,0,0,1,6.861-9.1l1.988-.569a2.7,2.7,0,0,0,1.96-2.6l2.7,2.939,2.711-2.711a2.7,2.7,0,0,0,1.951,2.37l1.988.569A9.462,9.462,0,0,1,51.023,394.162Z" transform="translate(-7.099 -324.701)" fill="#8acce7"/>
      <path id="Trazado_1034570" data-name="Trazado 1034570" d="M104.519,386.631l-2.7,3.6-2.307-3.845.347-.1a2.7,2.7,0,0,0,1.951-2.37Z" transform="translate(-74.107 -326.493)" fill="#379ec3"/>
      <path id="Trazado_1034571" data-name="Trazado 1034571" d="M149.009,386.389l-2.307,3.845-2.7-3.6,2.711-2.711a2.7,2.7,0,0,0,1.951,2.37Z" transform="translate(-113.588 -326.493)" fill="#379ec3"/>
      <path id="Trazado_1034572" data-name="Trazado 1034572" d="M50.252,276.5h3L51.6,272H50.252a2.252,2.252,0,1,0,0,4.5Z" transform="translate(-28.397 -227.175)" fill="#f2c194"/>
      <path id="Trazado_1034573" data-name="Trazado 1034573" d="M197.519,272h-1.351l-1.5,4.5h2.852a2.252,2.252,0,1,0,0-4.5Z" transform="translate(-158.549 -227.175)" fill="#f2c194"/>
      <path id="Trazado_1034574" data-name="Trazado 1034574" d="M94.412,233.8v6.305a7.206,7.206,0,0,1-7.206,7.206h0A7.206,7.206,0,0,1,80,240.107V233.8L90.021,232Z" transform="translate(-56.794 -191.679)" fill="#f4ceaf"/>
      <path id="Trazado_1034575" data-name="Trazado 1034575" d="M76,236.5h6.756a3.6,3.6,0,0,0,3.6-3.6,3.6,3.6,0,0,0,3.6,3.6h1.351V232H76Z" transform="translate(-53.244 -191.679)" fill="#ad7d4d"/>
      <path id="Trazado_1034576" data-name="Trazado 1034576" d="M137.436,16H99.6A3.6,3.6,0,0,0,96,19.6V34.015h1.8V19.6a1.8,1.8,0,0,1,1.8-1.8h37.833a1.8,1.8,0,0,1,1.8,1.8V60.138a1.8,1.8,0,0,1-1.8,1.8H115.817v1.8h21.619a3.6,3.6,0,0,0,3.6-3.6V19.6A3.6,3.6,0,0,0,137.436,16Z" transform="translate(-70.992)"/>
      <path id="Trazado_1034577" data-name="Trazado 1034577" d="M172.031,40.9a.9.9,0,0,0-.9-.9H136.9a.9.9,0,0,0-.9.9v5.4a.9.9,0,0,0,.9.9H171.13a.9.9,0,0,0,.9-.9Zm-1.8,4.5H137.8V41.8h32.428Z" transform="translate(-106.488 -21.298)"/>
      <path id="Trazado_1034578" data-name="Trazado 1034578" d="M298.916,280.214a.9.9,0,0,0,.9-.9V264.9a.9.9,0,0,0-.9-.9h-4.5a.9.9,0,0,0-.9.9v3.6h-2.7v-1.8a.9.9,0,0,0-.9-.9h-4.5a.9.9,0,0,0-.9.9v6.305h-3.6a.9.9,0,0,0-.9.9v5.4a.9.9,0,0,0,1.8,0v-4.5h2.7v4.5a.9.9,0,1,0,1.8,0V267.6h2.7v11.71a.9.9,0,1,0,1.8,0v-9.008h2.7v9.008a.9.9,0,1,0,1.8,0V265.8h2.7v13.512A.9.9,0,0,0,298.916,280.214Z" transform="translate(-234.274 -220.076)"/>
      <path id="Trazado_1034579" data-name="Trazado 1034579" d="M248,216h9.008v1.8H248Z" transform="translate(-205.878 -177.481)"/>
      <path id="Trazado_1034580" data-name="Trazado 1034580" d="M168,120h3.6v1.8H168Z" transform="translate(-134.885 -92.29)"/>
      <path id="Trazado_1034581" data-name="Trazado 1034581" d="M216,120h7.206v1.8H216Z" transform="translate(-177.481 -92.29)"/>
      <path id="Trazado_1034582" data-name="Trazado 1034582" d="M296,120h10.809v1.8H296Z" transform="translate(-248.473 -92.29)"/>
      <path id="Trazado_1034583" data-name="Trazado 1034583" d="M408,120h4.5v1.8H408Z" transform="translate(-347.862 -92.29)"/>
      <path id="Trazado_1034584" data-name="Trazado 1034584" d="M136,152h3.6v1.8H136Z" transform="translate(-106.488 -120.687)"/>
      <path id="Trazado_1034585" data-name="Trazado 1034585" d="M184,152h7.206v1.8H184Z" transform="translate(-149.084 -120.687)"/>
      <path id="Trazado_1034586" data-name="Trazado 1034586" d="M264,152h10.809v1.8H264Z" transform="translate(-220.076 -120.687)"/>
      <path id="Trazado_1034587" data-name="Trazado 1034587" d="M376,152h8.107v1.8H376Z" transform="translate(-319.465 -120.687)"/>
      <path id="Trazado_1034588" data-name="Trazado 1034588" d="M216,184h9.008v1.8H216Z" transform="translate(-177.481 -149.084)"/>
      <path id="Trazado_1034589" data-name="Trazado 1034589" d="M312,184h10.809v1.8H312Z" transform="translate(-262.671 -149.084)"/>
      <path id="Trazado_1034590" data-name="Trazado 1034590" d="M424,184h2.7v1.8H424Z" transform="translate(-362.06 -149.084)"/>
      <path id="Trazado_1034591" data-name="Trazado 1034591" d="M344,216h5.4v1.8H344Z" transform="translate(-291.068 -177.481)"/>
      <path id="Trazado_1034592" data-name="Trazado 1034592" d="M64,480h1.8v1.8H64Z" transform="translate(-42.595 -411.755)"/>
      <path id="Trazado_1034593" data-name="Trazado 1034593" d="M208,480h1.8v1.8H208Z" transform="translate(-170.381 -411.755)"/>
      <path id="Trazado_1034594" data-name="Trazado 1034594" d="M37.311,208.58l-1.989-.568a1.809,1.809,0,0,1-1.289-1.5h4.487a4.5,4.5,0,0,0,4.5-4.5.9.9,0,0,0-.264-.636,8.36,8.36,0,0,1-1.826-2.754A3.154,3.154,0,0,0,40.3,193.3a9.907,9.907,0,0,0-19.778,0,3.151,3.151,0,0,0-.9,5.087,3.206,3.206,0,0,0,.264.236,8.308,8.308,0,0,1-1.825,2.753.9.9,0,0,0-.264.637,4.509,4.509,0,0,0,4.5,4.5h4.487a1.809,1.809,0,0,1-1.289,1.5l-1.989.568A10.36,10.36,0,0,0,16,218.542v.586h1.8v-.586a8.559,8.559,0,0,1,6.207-8.229l.977-.279,1.951,3.252a.9.9,0,0,0,1.493.077l1.081-1.441v7.206h1.8v-7.206l1.081,1.441a.9.9,0,0,0,.721.36h.047a.9.9,0,0,0,.726-.436l1.951-3.252.977.279a8.559,8.559,0,0,1,6.207,8.229v.586h1.8v-.586a10.36,10.36,0,0,0-7.514-9.962Zm-6.9-.635-1.8-1.8v-1.952a.9.9,0,0,0-.563-.835,6.282,6.282,0,0,1-3.941-5.847v-2.7h5.4a4.5,4.5,0,0,0,3.6-1.8,4.5,4.5,0,0,0,3.6,1.8v2.7a6.282,6.282,0,0,1-3.941,5.847.9.9,0,0,0-.563.835v1.952Zm8.107-13.139h.45a1.351,1.351,0,1,1,0,2.7h-.45Zm2.681,7.546a2.7,2.7,0,0,1-2.681,2.362H34.129a8.062,8.062,0,0,0,4.19-5.4h.651c.1,0,.2-.005.294-.014a10.178,10.178,0,0,0,1.937,3.057ZM30.412,185.8a8.1,8.1,0,0,1,8.056,7.207H36.718a2.705,2.705,0,0,1-2.7-2.7.9.9,0,0,0-1.8,0,2.705,2.705,0,0,1-2.7,2.7H22.357A8.118,8.118,0,0,1,30.412,185.8Zm-8.557,9.008h.45v2.7h-.45a1.351,1.351,0,1,1,0-2.7Zm-2.231,7.546a10.1,10.1,0,0,0,1.936-3.056c.1.009.2.014.294.014h.651a8.062,8.062,0,0,0,4.19,5.4H22.305a2.706,2.706,0,0,1-2.681-2.362Zm8.169,8.857-1.062-1.77a3.625,3.625,0,0,0,1.345-1.283l1.146,1.146Zm5.238,0L31.6,209.3l1.146-1.146a3.625,3.625,0,0,0,1.345,1.283Z" transform="translate(0 -149.081)"/>
    </g>
  </g>
</svg>
