<svg xmlns="http://www.w3.org/2000/svg" width="129.834" height="47.103" viewBox="0 0 129.834 47.103">
  <g id="Grupo_1176344" data-name="Grupo 1176344" transform="translate(-471.499 -5564.525)">
    <path id="Trazado_1034637" data-name="Trazado 1034637" d="M9.07-5.854A6.835,6.835,0,0,1,8.93-4.5,6.982,6.982,0,0,1,8.5-3.129a6.773,6.773,0,0,1-.725,1.283A5.2,5.2,0,0,1,6.75-.778a4.748,4.748,0,0,1-1.336.729A4.863,4.863,0,0,1,3.762.22a5.437,5.437,0,0,1-1.024-.1,6.294,6.294,0,0,1-.883-.229l-.9,4.28H-.5L1.7-6.231q.062-.281.114-.677T1.9-7.7q.04-.4.066-.751T2-9H3.472q0,.149-.022.4t-.057.532q-.035.277-.07.536t-.062.417H3.3A4.748,4.748,0,0,1,4.7-8.7,3.006,3.006,0,0,1,6.407-9.22a2.785,2.785,0,0,1,1.107.211,2.192,2.192,0,0,1,.839.633,2.928,2.928,0,0,1,.532,1.055A5.259,5.259,0,0,1,9.07-5.854Zm-1.477.062a4.347,4.347,0,0,0-.083-.879,1.95,1.95,0,0,0-.277-.694,1.4,1.4,0,0,0-.5-.457,1.521,1.521,0,0,0-.743-.167,1.981,1.981,0,0,0-.857.189,2.951,2.951,0,0,0-.743.505,4.143,4.143,0,0,0-.624.734,7.294,7.294,0,0,0-.5.866,7.607,7.607,0,0,0-.374.9,6.791,6.791,0,0,0-.233.848l-.554,2.61a2.466,2.466,0,0,0,.378.127q.22.057.457.1t.483.07a4.309,4.309,0,0,0,.457.026,3.036,3.036,0,0,0,1.121-.2,3.252,3.252,0,0,0,.923-.549,3.877,3.877,0,0,0,.721-.817,5.424,5.424,0,0,0,.523-1,5.9,5.9,0,0,0,.316-1.1A6.071,6.071,0,0,0,7.594-5.792Z" transform="translate(472 5593)" fill="#212429"/>
    <path id="Trazado_1034638" data-name="Trazado 1034638" d="M10.3-6.539H2.039V-7.7H10.3Zm0,3.744H2.039v-1.16H10.3Z" transform="translate(487 5593)" fill="#212429"/>
    <path id="Trazado_1034639" data-name="Trazado 1034639" d="M6.363,0H4.922V-10.89a3.336,3.336,0,0,1-.488.382,7.951,7.951,0,0,1-.721.426q-.4.211-.844.4A6.132,6.132,0,0,1,2-9.4v-1.459A8.379,8.379,0,0,0,3.01-11.21q.532-.224,1.046-.5t.971-.58a7.71,7.71,0,0,0,.791-.593h.545Z" transform="translate(502 5593)" fill="#212429"/>
    <path id="Trazado_1034640" data-name="Trazado 1034640" d="M8.982,15a4.669,4.669,0,0,1-.3,1.7,4.078,4.078,0,0,1-.826,1.336,3.691,3.691,0,0,1-1.257.875,3.98,3.98,0,0,1-1.582.312,3.6,3.6,0,0,1-1.7-.4,3.6,3.6,0,0,1-1.274-1.138,5.459,5.459,0,0,1-.8-1.815,9.833,9.833,0,0,1-.272-2.417A11.358,11.358,0,0,1,1.34,10.47,7.249,7.249,0,0,1,2.377,8.176,4.781,4.781,0,0,1,4,6.7a4.345,4.345,0,0,1,2.118-.519,5.1,5.1,0,0,1,2.092.36V7.908a4.442,4.442,0,0,0-2.057-.5,3.065,3.065,0,0,0-1.521.378,3.492,3.492,0,0,0-1.16,1.068,5.209,5.209,0,0,0-.743,1.666,8.45,8.45,0,0,0-.259,2.171H2.5a3.027,3.027,0,0,1,2.874-1.573,3.783,3.783,0,0,1,1.49.281,3.216,3.216,0,0,1,1.134.8,3.581,3.581,0,0,1,.725,1.226A4.667,4.667,0,0,1,8.982,15Zm-1.477.185A3.922,3.922,0,0,0,7.339,14a2.574,2.574,0,0,0-.479-.9,2.065,2.065,0,0,0-.769-.567,2.588,2.588,0,0,0-1.037-.2,2.428,2.428,0,0,0-.993.2,2.473,2.473,0,0,0-.791.549,2.572,2.572,0,0,0-.712,1.789A3.909,3.909,0,0,0,2.742,16.1a3.144,3.144,0,0,0,.519.989,2.466,2.466,0,0,0,.8.664,2.173,2.173,0,0,0,1.024.242,2.345,2.345,0,0,0,.993-.207,2.216,2.216,0,0,0,.765-.576,2.665,2.665,0,0,0,.492-.883A3.5,3.5,0,0,0,7.506,15.186ZM16.56,9.3l-2.408.492,1.67,2.136-.967.668-1.371-2.329L12.1,12.593l-.967-.668L12.8,9.789,10.373,9.3l.4-1.1,2.3.87-.2-2.672h1.213l-.2,2.672,2.312-.87ZM27.847,23.122H17.661v-.686L23.6,14.676,17.986,7.188V6.4H27.5V7.75H20.148l5.221,6.891-5.493,7.137h7.972Zm8.387-6.891q-.062.281-.119.677t-.1.8q-.044.4-.075.751T35.909,19H34.415q0-.149.022-.4t.053-.523q.031-.272.066-.523t.062-.409h-.035a8.877,8.877,0,0,1-.633.9,3.663,3.663,0,0,1-.668.65,2.684,2.684,0,0,1-.747.391,2.738,2.738,0,0,1-.87.132A2.688,2.688,0,0,1,30.556,19a2.256,2.256,0,0,1-.839-.646,2.977,2.977,0,0,1-.532-1.055A5.141,5.141,0,0,1,29,15.854a7.115,7.115,0,0,1,.136-1.354,6.931,6.931,0,0,1,.422-1.38,6.467,6.467,0,0,1,.725-1.283,4.913,4.913,0,0,1,2.435-1.789,5.372,5.372,0,0,1,1.749-.268,5.932,5.932,0,0,1,.914.066q.422.066.729.136l.914-4.307h1.424Zm-.378-5.01a5.662,5.662,0,0,0-.7-.154,5.03,5.03,0,0,0-.778-.057,3.566,3.566,0,0,0-1.349.237,3.4,3.4,0,0,0-1.02.633,3.788,3.788,0,0,0-.729.9,5.676,5.676,0,0,0-.475,1.037,5.9,5.9,0,0,0-.255,1.046,6.508,6.508,0,0,0-.075.927,4.443,4.443,0,0,0,.083.9,2,2,0,0,0,.272.694,1.3,1.3,0,0,0,.488.448,1.522,1.522,0,0,0,.721.158,1.865,1.865,0,0,0,.822-.185,2.83,2.83,0,0,0,.716-.5,4.136,4.136,0,0,0,.606-.729,7.077,7.077,0,0,0,.492-.879,7.81,7.81,0,0,0,.374-.945q.154-.479.25-.918Zm5.873,7.743a3.368,3.368,0,0,1-.5.114,3.5,3.5,0,0,1-.549.044,1.793,1.793,0,0,1-1.327-.444,1.618,1.618,0,0,1-.439-1.191,3.631,3.631,0,0,1,.044-.519q.044-.3.141-.738L40.411,10H41.87l-1.318,6.267q-.079.369-.11.571a2.338,2.338,0,0,0-.031.343.724.724,0,0,0,.2.549.886.886,0,0,0,.628.189,2.662,2.662,0,0,0,.4-.026,1.772,1.772,0,0,0,.321-.079ZM42.757,6.792a.946.946,0,0,1-.268.677.88.88,0,0,1-.664.281.934.934,0,0,1-.672-.277.911.911,0,0,1-.286-.681.843.843,0,0,1,.286-.659.977.977,0,0,1,.672-.255.921.921,0,0,1,.659.259A.865.865,0,0,1,42.757,6.792Zm3.933.784a1.52,1.52,0,0,0-.105-.59,1.141,1.141,0,0,0-.715-.666,1.676,1.676,0,0,0-.533-.082,1.764,1.764,0,0,0-.482.067,2.343,2.343,0,0,0-.459.185,2.822,2.822,0,0,0-.431.282,3.111,3.111,0,0,0-.387.364v-.9a2.514,2.514,0,0,1,.792-.525,2.789,2.789,0,0,1,1.069-.182,2.58,2.58,0,0,1,.836.131,1.916,1.916,0,0,1,.666.382,1.766,1.766,0,0,1,.443.62,2.092,2.092,0,0,1,.161.846,2.9,2.9,0,0,1-.1.79,2.442,2.442,0,0,1-.3.666,3.216,3.216,0,0,1-.51.6,7.226,7.226,0,0,1-.723.584q-.518.369-.854.631a3.773,3.773,0,0,0-.533.49,1.421,1.421,0,0,0-.277.456,1.6,1.6,0,0,0-.079.525h3.66V13H43.291v-.364a3.033,3.033,0,0,1,.1-.831,2.157,2.157,0,0,1,.338-.682,3.784,3.784,0,0,1,.618-.646q.382-.323.936-.728a5.915,5.915,0,0,0,.669-.549,2.852,2.852,0,0,0,.433-.523,1.878,1.878,0,0,0,.233-.531A2.288,2.288,0,0,0,46.69,7.576Z" transform="translate(537 5559)" fill="#212429"/>
    <path id="Trazado_1034641" data-name="Trazado 1034641" d="M9.193-6.75a2.864,2.864,0,0,1-.031.36q-.031.229-.079.492t-.1.523q-.048.259-.092.444L7.849,0H6.39l1.1-5.273q.035-.141.07-.325t.062-.369q.026-.185.044-.338a2.261,2.261,0,0,0,.018-.242A1.6,1.6,0,0,0,7.361-7.6a1.168,1.168,0,0,0-.954-.387,2.218,2.218,0,0,0-1.151.343,4.737,4.737,0,0,0-1.055.87,5.934,5.934,0,0,0-.831,1.16A4.445,4.445,0,0,0,2.9-4.395L1.96,0H.5L1.89-6.425q.07-.343.141-.716t.132-.721q.062-.347.105-.646T2.338-9H3.744q-.044.343-.105.716t-.105.69q-.053.369-.114.721h.035a7.432,7.432,0,0,1,.681-.91,5.1,5.1,0,0,1,.809-.747,3.84,3.84,0,0,1,.923-.505A2.869,2.869,0,0,1,6.891-9.22a2.657,2.657,0,0,1,1.028.18,1.926,1.926,0,0,1,.716.505,2.058,2.058,0,0,1,.422.782A3.5,3.5,0,0,1,9.193-6.75ZM20.341-9.22,22.02-7.075l-.976.668-1.371-2.32-1.38,2.32-.976-.668,1.7-2.145L16.58-9.7l.378-1.1,2.3.87L19.067-12.6h1.2l-.2,2.672,2.3-.87.378,1.1ZM34.689-12.6a21.114,21.114,0,0,0-1.964,2.215,14.96,14.96,0,0,0-1.49,2.364,12.43,12.43,0,0,0-.949,2.536,11.072,11.072,0,0,0-.334,2.738,11.1,11.1,0,0,0,.092,1.419A10.751,10.751,0,0,0,30.321.075a11.416,11.416,0,0,0,.448,1.34,8.366,8.366,0,0,0,.606,1.213H30.136a8.357,8.357,0,0,1-.646-1.235,10.341,10.341,0,0,1-.461-1.34,10.752,10.752,0,0,1-.277-1.38,10.27,10.27,0,0,1-.092-1.354,12.215,12.215,0,0,1,.325-2.87,12.492,12.492,0,0,1,.923-2.571,13.626,13.626,0,0,1,1.455-2.333,20.4,20.4,0,0,1,1.92-2.149ZM42.214-6.75a2.864,2.864,0,0,1-.031.36q-.031.229-.079.492t-.1.523q-.048.259-.092.444L40.869,0H39.41l1.1-5.273q.035-.141.07-.325t.062-.369q.026-.185.044-.338a2.261,2.261,0,0,0,.018-.242A1.6,1.6,0,0,0,40.382-7.6a1.168,1.168,0,0,0-.954-.387,2.218,2.218,0,0,0-1.151.343,4.737,4.737,0,0,0-1.055.87,5.934,5.934,0,0,0-.831,1.16,4.445,4.445,0,0,0-.47,1.222L34.981,0H33.522L34.91-6.425q.07-.343.141-.716t.132-.721q.062-.347.105-.646T35.359-9h1.406q-.044.343-.105.716t-.105.69q-.053.369-.114.721h.035a7.433,7.433,0,0,1,.681-.91,5.1,5.1,0,0,1,.809-.747,3.84,3.84,0,0,1,.923-.505,2.869,2.869,0,0,1,1.024-.185,2.657,2.657,0,0,1,1.028.18,1.926,1.926,0,0,1,.716.505,2.058,2.058,0,0,1,.422.782A3.5,3.5,0,0,1,42.214-6.75Zm5.564-4.971a1,1,0,0,0-.295-.766,1.154,1.154,0,0,0-.818-.274,2.574,2.574,0,0,0-1,.21,3.228,3.228,0,0,0-.938.61l.21-.943a2.723,2.723,0,0,1,.889-.461,3.813,3.813,0,0,1,1.043-.128,1.9,1.9,0,0,1,1.307.433,1.483,1.483,0,0,1,.487,1.166,2.664,2.664,0,0,1-.213,1.1,2.923,2.923,0,0,1-.679.915,9.052,9.052,0,0,1-1.364,1q-.815.508-1.238.836a3.3,3.3,0,0,0-.628.6,1.744,1.744,0,0,0-.292.661h3.63L47.722-6H43.185l.077-.364a3.545,3.545,0,0,1,.4-1.066A3.655,3.655,0,0,1,44.4-8.3a12.637,12.637,0,0,1,1.471-1.056,8.734,8.734,0,0,0,1.13-.82,2.657,2.657,0,0,0,.592-.713A1.764,1.764,0,0,0,47.778-11.721Zm6.98,7.274H49.951l.255-1.134h4.808ZM60.043,0l2.347-10.978-3.111.844.308-1.389,4.623-1.292L61.5,0ZM70.134-7.286a12.231,12.231,0,0,1-.325,2.865,12.216,12.216,0,0,1-.927,2.571A13.918,13.918,0,0,1,67.423.479,20.4,20.4,0,0,1,65.5,2.628H64.087A21.777,21.777,0,0,0,66.056.417a14.617,14.617,0,0,0,1.494-2.36A12.43,12.43,0,0,0,68.5-4.478a11.072,11.072,0,0,0,.334-2.738,11,11,0,0,0-.092-1.415,11.457,11.457,0,0,0-.272-1.406,10.785,10.785,0,0,0-.444-1.345,8.785,8.785,0,0,0-.606-1.222H68.64a8.981,8.981,0,0,1,.65,1.248,10.14,10.14,0,0,1,.466,1.345,11.34,11.34,0,0,1,.281,1.375A9.717,9.717,0,0,1,70.134-7.286Z" transform="translate(524 5609)" fill="#212429"/>
    <path id="Trazado_1029840" data-name="Trazado 1029840" d="M6785,2972.5h79.594" transform="translate(-6263.261 2615.876)" fill="none" stroke="#212429" stroke-width="1"/>
  </g>
</svg>
