<svg xmlns="http://www.w3.org/2000/svg" xmlns:xlink="http://www.w3.org/1999/xlink" width="106" height="106" viewBox="0 0 106 106">
  <defs>
    <filter id="Trazado_982547" x="0" y="0" width="106" height="106" filterUnits="userSpaceOnUse">
      <feOffset dy="3" input="SourceAlpha"/>
      <feGaussianBlur stdDeviation="3" result="blur"/>
      <feFlood flood-opacity="0.161"/>
      <feComposite operator="in" in2="blur"/>
      <feComposite in="SourceGraphic"/>
    </filter>
  </defs>
  <g id="Grupo_1176341" data-name="Grupo 1176341" transform="translate(-171 -3603)">
    <g id="Grupo_1174759" data-name="Grupo 1174759" transform="translate(0 2221)">
      <g id="Grupo_1173169" data-name="Grupo 1173169" transform="translate(0 -2329)">
        <g id="Grupo_1172017" data-name="Grupo 1172017" transform="translate(0 2654)">
          <g id="Grupo_1167337" data-name="Grupo 1167337" transform="translate(180 1063)">
            <g id="Grupo_1166720" data-name="Grupo 1166720" transform="translate(0)">
              <g id="Grupo_1164305" data-name="Grupo 1164305">
                <g id="Grupo_1163948" data-name="Grupo 1163948">
                  <g id="Grupo_1158168" data-name="Grupo 1158168">
                    <g id="Grupo_1152576" data-name="Grupo 1152576">
                      <g id="Grupo_1148633" data-name="Grupo 1148633">
                        <g id="Grupo_1148525" data-name="Grupo 1148525">
                          <g transform="matrix(1, 0, 0, 1, -9, -6)" filter="url(#Trazado_982547)">
                            <g id="Trazado_982547-2" data-name="Trazado 982547" transform="translate(9 6)" fill="#f2f7e5">
                              <path d="M 44 86.5 C 38.26187515258789 86.5 32.69618606567383 85.37651062011719 27.45755004882812 83.16075897216797 C 22.3968505859375 81.020263671875 17.85157585144043 77.95565032958984 13.94796276092529 74.05204010009766 C 10.04434967041016 70.1484375 6.979737281799316 65.6031494140625 4.839250087738037 60.54246139526367 C 2.62348747253418 55.30381393432617 1.5 49.73812484741211 1.5 44 C 1.5 38.26187515258789 2.62348747253418 32.69618606567383 4.839250087738037 27.45755004882812 C 6.979737281799316 22.3968505859375 10.04434967041016 17.85157585144043 13.94796276092529 13.94796276092529 C 17.85157585144043 10.04434967041016 22.3968505859375 6.979737281799316 27.45755004882812 4.839250087738037 C 32.69618606567383 2.62348747253418 38.26187515258789 1.5 44 1.5 C 49.73812484741211 1.5 55.30381393432617 2.62348747253418 60.54246139526367 4.839250087738037 C 65.6031494140625 6.979737281799316 70.1484375 10.04434967041016 74.05204010009766 13.94796276092529 C 77.95565032958984 17.85157585144043 81.020263671875 22.3968505859375 83.16075897216797 27.45755004882812 C 85.37651062011719 32.69618606567383 86.5 38.26187515258789 86.5 44 C 86.5 49.73812484741211 85.37651062011719 55.30381393432617 83.16075897216797 60.54246139526367 C 81.020263671875 65.6031494140625 77.95565032958984 70.1484375 74.05204010009766 74.05204010009766 C 70.1484375 77.95565032958984 65.6031494140625 81.020263671875 60.54246139526367 83.16075897216797 C 55.30381393432617 85.37651062011719 49.73812484741211 86.5 44 86.5 Z" stroke="none"/>
                              <path d="M 44 3 C 38.46371459960938 3 33.09462738037109 4.083610534667969 28.0418701171875 6.220756530761719 C 23.15997314453125 8.285614013671875 18.77495574951172 11.24228668212891 15.00862884521484 15.00862884521484 C 11.24228668212891 18.77495574951172 8.285614013671875 23.15997314453125 6.220756530761719 28.0418701171875 C 4.083610534667969 33.09462738037109 3 38.46371459960938 3 44 C 3 49.53628540039062 4.083610534667969 54.9053840637207 6.220756530761719 59.9581298828125 C 8.285614013671875 64.84002685546875 11.24228668212891 69.22504425048828 15.00862884521484 72.99138641357422 C 18.77495574951172 76.75771331787109 23.15997314453125 79.71438598632812 28.0418701171875 81.77925872802734 C 33.09462738037109 83.9163818359375 38.46371459960938 85 44 85 C 49.53628540039062 85 54.9053840637207 83.9163818359375 59.95814514160156 81.77925872802734 C 64.84002685546875 79.71438598632812 69.22504425048828 76.75771331787109 72.99138641357422 72.99138641357422 C 76.75771331787109 69.22504425048828 79.71438598632812 64.84002685546875 81.77925872802734 59.95814514160156 C 83.9163818359375 54.9053840637207 85 49.53628540039062 85 44 C 85 38.46371459960938 83.9163818359375 33.09462738037109 81.77925872802734 28.0418701171875 C 79.71438598632812 23.15997314453125 76.75771331787109 18.77495574951172 72.99138641357422 15.00862884521484 C 69.22504425048828 11.24228668212891 64.84002685546875 8.285614013671875 59.9581298828125 6.220756530761719 C 54.9053840637207 4.083610534667969 49.53628540039062 3 44 3 M 44 0 C 68.30054473876953 0 88 19.69947052001953 88 44 C 88 68.30054473876953 68.30054473876953 88 44 88 C 19.69947052001953 88 0 68.30054473876953 0 44 C 0 19.69947052001953 19.69947052001953 0 44 0 Z" stroke="none" fill="#86b60c"/>
                            </g>
                          </g>
                        </g>
                      </g>
                    </g>
                  </g>
                </g>
              </g>
            </g>
          </g>
        </g>
      </g>
    </g>
    <g id="analytics_998392" transform="translate(177.379 3623.608)">
      <g id="Grupo_1176339" data-name="Grupo 1176339" transform="translate(21.153 0.815)">
        <path id="Trazado_1034534" data-name="Trazado 1034534" d="M129.428,7.349a11.066,11.066,0,0,0-11.066,11.066v4.379a3.528,3.528,0,0,1,2.819-.921v-.551a.754.754,0,0,1,.808-.752,19.812,19.812,0,0,0,11.925-3.2.754.754,0,0,1,.964.118c2.815,3.025,2.8,2.908,2.8,3.3v1.083a3.348,3.348,0,0,1,2.818.824v-4.28A11.066,11.066,0,0,0,129.428,7.349Z" transform="translate(-108.158 -7.349)" fill="#576574"/>
        <g id="Grupo_1176336" data-name="Grupo 1176336" transform="translate(10.204 0)">
          <path id="Trazado_1034535" data-name="Trazado 1034535" d="M121.333,18.415a11.066,11.066,0,0,1,9.581-10.964,11.053,11.053,0,0,0-12.551,10.964v4.379a3.527,3.527,0,0,1,2.819-.921v-.551a.749.749,0,0,1,.151-.452Z" transform="translate(-118.363 -7.349)" fill="#3e4b5a"/>
        </g>
        <path id="Trazado_1034536" data-name="Trazado 1034536" d="M291.138,133.977v6.062c0,.066,0,.131-.005.2a3.192,3.192,0,1,0,.005-6.258Z" transform="translate(-261.767 -119.895)" fill="#f2bb88"/>
        <path id="Trazado_1034537" data-name="Trazado 1034537" d="M114.475,140.171v-6.06a3.361,3.361,0,0,0-3.82,3.127,3.215,3.215,0,0,0,3.825,3.129C114.479,140.3,114.475,140.237,114.475,140.171Z" transform="translate(-101.306 -120.027)" fill="#f2bb88"/>
        <path id="Trazado_1034538" data-name="Trazado 1034538" d="M293.822,134.684a3.364,3.364,0,0,0-2.684-.706v6.062c0,.066,0,.131-.005.2a3.362,3.362,0,0,0,2.689-.706Z" transform="translate(-261.767 -119.895)" fill="#e3a76f"/>
        <path id="Trazado_1034539" data-name="Trazado 1034539" d="M114.475,139.662a3.138,3.138,0,0,1-1.137-2.423,3.029,3.029,0,0,1,1.137-2.325v-.8a3.361,3.361,0,0,0-3.82,3.127,3.215,3.215,0,0,0,3.825,3.129c0-.065,0-.131,0-.2Z" transform="translate(-101.306 -120.027)" fill="#e3a76f"/>
        <path id="Trazado_1034540" data-name="Trazado 1034540" d="M181.973,249.451a8.536,8.536,0,0,1-4.644-1.312v4.343l4.624,5.708,4.624-5.708v-4.465A8.082,8.082,0,0,1,181.973,249.451Z" transform="translate(-160.585 -221.324)" fill="#f2bb88"/>
        <path id="Trazado_1034541" data-name="Trazado 1034541" d="M180.29,250.28a8.28,8.28,0,0,1-2.961-1.159v4.343l2.961,3.655Z" transform="translate(-160.585 -222.306)" fill="#e3a76f"/>
        <path id="Trazado_1034542" data-name="Trazado 1034542" d="M64.584,290.373l-12.233-4.737-4.624,5.708L43.1,285.636l-12.22,4.737a7.751,7.751,0,0,0-4.524,7.018v11.447a1.052,1.052,0,0,0,1.052,1.052H68.065a1.043,1.043,0,0,0,1.043-1.043V297.391A7.751,7.751,0,0,0,64.584,290.373Z" transform="translate(-26.359 -254.771)" fill="#e4eaf8"/>
        <g id="Grupo_1176337" data-name="Grupo 1176337" transform="translate(0 34.864)">
          <path id="Trazado_1034543" data-name="Trazado 1034543" d="M29.321,340.9V328.118a7.568,7.568,0,0,1,3.467-6.423l-1.9.738a7.751,7.751,0,0,0-4.524,7.018V340.9a1.052,1.052,0,0,0,1.052,1.052h2.961A1.052,1.052,0,0,1,29.321,340.9Z" transform="translate(-26.36 -321.695)" fill="#d8dce5"/>
        </g>
        <path id="Trazado_1034544" data-name="Trazado 1034544" d="M157.474,94.165a.754.754,0,0,0-.964-.118,19.812,19.812,0,0,1-11.925,3.2.754.754,0,0,0-.808.752v6.611a8.248,8.248,0,0,0,16.495,0V97.469C160.272,97.074,160.289,97.191,157.474,94.165Z" transform="translate(-130.754 -84.323)" fill="#f2d1a5"/>
        <g id="Grupo_1176338" data-name="Grupo 1176338" transform="translate(13.023 12.926)">
          <path id="Trazado_1034545" data-name="Trazado 1034545" d="M146.738,131.255V123.91a17.284,17.284,0,0,1-2.153-.017.754.754,0,0,0-.808.752v6.611a8.342,8.342,0,0,0,9.728,8.013A8.142,8.142,0,0,1,146.738,131.255Z" transform="translate(-143.777 -123.89)" fill="#f2bb88"/>
        </g>
        <path id="Trazado_1034546" data-name="Trazado 1034546" d="M224.6,294.276l3.458-6.93-4.417-1.711-4.624,5.708,4.508,3.2A.729.729,0,0,0,224.6,294.276Z" transform="translate(-197.652 -254.771)" fill="#d8dce5"/>
        <path id="Trazado_1034547" data-name="Trazado 1034547" d="M141.021,294.276l-3.458-6.93,4.417-1.711,4.624,5.708-4.508,3.2A.729.729,0,0,1,141.021,294.276Z" transform="translate(-125.229 -254.771)" fill="#d8dce5"/>
        <path id="Trazado_1034548" data-name="Trazado 1034548" d="M192.745,337.1v0l0,0,0,0v0l-3.279,2.329,1.55,2.333h3.464l1.55-2.333Z" transform="translate(-171.37 -300.523)" fill="#ee5253"/>
        <path id="Trazado_1034549" data-name="Trazado 1034549" d="M182.251,393.043h8.163l-2.35-13.881H184.6Z" transform="translate(-164.961 -337.924)" fill="#ff6b6b"/>
        <path id="Trazado_1034550" data-name="Trazado 1034550" d="M194.383,338.264l-1.638-1.163v0l0,0,0,0v0l-3.279,2.329,1.55,2.333h3.282l-1.273-1.915a.517.517,0,0,1,.131-.708Z" transform="translate(-171.37 -300.524)" fill="#d83941"/>
        <path id="Trazado_1034551" data-name="Trazado 1034551" d="M184.6,379.161l-2.35,13.881h3.282l2.349-13.881Z" transform="translate(-164.96 -337.923)" fill="#ee5253"/>
        <path id="Trazado_1034552" data-name="Trazado 1034552" d="M258,441.691a.874.874,0,0,0-.874.874v6.072h6.493v-6.946H258Z" transform="translate(-231.529 -393.518)" fill="#54a0ff"/>
        <path id="Trazado_1034553" data-name="Trazado 1034553" d="M260.215,441.692H258a.874.874,0,0,0-.874.874v6.072h2.218v-6.072A.874.874,0,0,1,260.215,441.692Z" transform="translate(-231.529 -393.519)" fill="#338def"/>
        <path id="Trazado_1034554" data-name="Trazado 1034554" d="M316.8,379.066h-2.262a.874.874,0,0,0-.874.874v13.018h6.493V379.066Z" transform="translate(-281.803 -337.839)" fill="#15ba8b"/>
        <path id="Trazado_1034555" data-name="Trazado 1034555" d="M316.761,379.066h-2.218a.874.874,0,0,0-.874.874v13.018h2.218V379.94A.874.874,0,0,1,316.761,379.066Z" transform="translate(-281.803 -337.839)" fill="#11aa7b"/>
        <path id="Trazado_1034556" data-name="Trazado 1034556" d="M373.352,316.44H371.09a.874.874,0,0,0-.874.874v6.072h0v13.892h6.494V316.44h-3.358Z" transform="translate(-332.078 -282.158)" fill="#feca57"/>
        <path id="Trazado_1034557" data-name="Trazado 1034557" d="M372.424,323.387v-6.072a.874.874,0,0,1,.874-.874H371.09a.874.874,0,0,0-.874.874v6.072h0v13.892h2.208V323.387Z" transform="translate(-332.078 -282.159)" fill="#f4b537"/>
        <path id="Trazado_1034558" data-name="Trazado 1034558" d="M432.184,253.815h-4.548a.874.874,0,0,0-.874.874V281.6h5.243a1.029,1.029,0,0,0,1.029-1.029v-25.9A.85.85,0,0,0,432.184,253.815Z" transform="translate(-382.354 -226.479)" fill="#ee5253"/>
        <path id="Trazado_1034559" data-name="Trazado 1034559" d="M429.844,253.815h-2.209a.874.874,0,0,0-.874.874V281.6h2.209V254.689A.874.874,0,0,1,429.844,253.815Z" transform="translate(-382.353 -226.479)" fill="#d83941"/>
      </g>
      <g id="Grupo_1176340" data-name="Grupo 1176340" transform="translate(20.504)">
        <path id="Trazado_1034560" data-name="Trazado 1034560" d="M71.907,41.259a.832.832,0,0,0,.832-.832V29.018a1.684,1.684,0,0,0-1.682-1.682H66.509A1.708,1.708,0,0,0,64.8,29.042v5.24H60.237a1.706,1.706,0,0,0-1.517.93l-1.374-.532a.832.832,0,1,0-.6,1.551l1.786.692v4.305H53.965a1.708,1.708,0,0,0-1.706,1.706v5.24H47.694a1.7,1.7,0,0,0-1.283.586l-1.1-6.514L46.2,40.9c.524.372,1,.815,1.806.613a1.559,1.559,0,0,0,1.018-.817l3.119-6.25.72.279a.832.832,0,1,0,.6-1.551l-5.311-2.057V28.233a8.958,8.958,0,0,0,3.459-6.049,4,4,0,0,0,2.883-6.64V11.9a11.9,11.9,0,0,0-23.79,0v3.744a3.767,3.767,0,0,0-1,2.546,4.011,4.011,0,0,0,3.885,4,8.86,8.86,0,0,0,3.655,6.188v2.746l-11.7,4.536A8.522,8.522,0,0,0,20.5,43.441V54.885a1.886,1.886,0,0,0,1.884,1.884c30.572,0,14.168.014,49.519.014a.832.832,0,0,0,.832-.832V44.309a.832.832,0,1,0-1.664,0v10.81H66.467V29.041A.042.042,0,0,1,66.509,29h4.548a.018.018,0,0,1,.018.018v11.41A.832.832,0,0,0,71.907,41.259ZM50.585,33.845l-3,6L43.9,37.23l3.683-4.546ZM42.7,38.418l2.142,1.521-.856,1.289H41.416l-.856-1.289Zm0-2.348-3.794-4.683V29.311a9.777,9.777,0,0,0,3.811.766,8.935,8.935,0,0,0,3.771-.833v2.151ZM53.834,18.185a2.34,2.34,0,0,1-2.156,2.326V15.86A2.342,2.342,0,0,1,53.834,18.185Zm-20.31,2.326a2.34,2.34,0,0,1-2.156-2.326A2.47,2.47,0,0,1,33.524,15.9Zm.027-6.295a4.616,4.616,0,0,0-1.182.28V11.9a10.231,10.231,0,1,1,20.463,0v2.528a4.175,4.175,0,0,0-1.154-.233v-.223h0c0-.77-.112-.737-3.02-3.862a1.582,1.582,0,0,0-2.028-.247,18.871,18.871,0,0,1-11.4,3.069A1.588,1.588,0,0,0,33.551,14.217Zm1.636,6.9V14.592a20.6,20.6,0,0,0,12.3-3.305c1.5,1.606,2.311,2.453,2.529,2.734,0,8.591,0,6.815,0,7.279a7.415,7.415,0,0,1-14.822-.183Zm2.625,11.568L41.5,37.233l-3.683,2.616-3-6Zm.106,22.42H29.866V45.213a.832.832,0,0,0-1.664,0v9.892H22.388a.221.221,0,0,1-.22-.22V43.441a6.863,6.863,0,0,1,4-6.244l7.09-2.749L36.379,40.7a1.559,1.559,0,0,0,1.018.817c.792.2,1.244-.214,1.806-.613l.892,1.343Zm1.687,0,2.067-12.214H43.73L45.8,55.105Zm12.654.014H47.652v-5.24a.042.042,0,0,1,.042-.042H52.26Zm6.272,0H53.924V42.933a.042.042,0,0,1,.042-.042h4.566Zm6.272,0H60.2V35.987a.042.042,0,0,1,.042-.042H64.8Z" transform="translate(-20.504)"/>
      </g>
    </g>
  </g>
</svg>
