<svg xmlns="http://www.w3.org/2000/svg" xmlns:xlink="http://www.w3.org/1999/xlink" width="108" height="108" viewBox="0 0 108 108">
  <defs>
    <filter id="Trazado_904820" x="0" y="0" width="108" height="108" filterUnits="userSpaceOnUse">
      <feOffset dy="3" input="SourceAlpha"/>
      <feGaussianBlur stdDeviation="3" result="blur"/>
      <feFlood flood-opacity="0.161"/>
      <feComposite operator="in" in2="blur"/>
      <feComposite in="SourceGraphic"/>
    </filter>
  </defs>
  <g id="Grupo_1174737" data-name="Grupo 1174737" transform="translate(9 6)">
    <g id="Grupo_1173585" data-name="Grupo 1173585" transform="translate(0 0)">
      <g id="Grupo_1173428" data-name="Grupo 1173428">
        <g id="Grupo_1171958" data-name="Grupo 1171958">
          <g id="Grupo_1167341" data-name="Grupo 1167341">
            <g id="Grupo_1166792" data-name="Grupo 1166792">
              <g transform="matrix(1, 0, 0, 1, -9, -6)" filter="url(#Trazado_904820)">
                <g id="Trazado_904820-2" data-name="Trazado 904820" transform="translate(9 6)" fill="#f2f7e5">
                  <path d="M 44.99999618530273 88.49999237060547 C 39.12687301635742 88.49999237060547 33.43022155761719 87.35006713867188 28.06829643249512 85.08216857910156 C 22.88852119445801 82.89130401611328 18.23629570007324 79.75457763671875 14.24084663391113 75.75914001464844 C 10.24540901184082 71.76369476318359 7.108683586120605 67.11146545410156 4.917821407318115 61.93169403076172 C 2.649921178817749 56.56976699829102 1.499996185302734 50.87311553955078 1.499996185302734 44.99999237060547 C 1.499996185302734 39.12686920166016 2.649921178817749 33.43021774291992 4.917821407318115 28.06829261779785 C 7.108683586120605 22.88851737976074 10.24540901184082 18.23630523681641 14.24084663391113 14.24085521697998 C 18.23629570007324 10.24540519714355 22.88852119445801 7.108692169189453 28.06829643249512 4.917829990386963 C 33.43022155761719 2.649929761886597 39.12687301635742 1.500004887580872 44.99999618530273 1.500004887580872 C 50.87311935424805 1.500004887580872 56.56977081298828 2.649929761886597 61.93169784545898 4.917829990386963 C 67.11147308349609 7.108692169189453 71.76369476318359 10.24540519714355 75.75914764404297 14.24085521697998 C 79.75458526611328 18.23630523681641 82.89131164550781 22.88851737976074 85.08216857910156 28.06829261779785 C 87.35007476806641 33.43021774291992 88.5 39.12686920166016 88.5 44.99999237060547 C 88.5 50.87311553955078 87.35007476806641 56.56976699829102 85.08216857910156 61.93169403076172 C 82.89131164550781 67.11146545410156 79.75458526611328 71.76369476318359 75.75914764404297 75.75914001464844 C 71.76369476318359 79.75457763671875 67.11147308349609 82.89130401611328 61.93169784545898 85.08216857910156 C 56.56977081298828 87.35006713867188 50.87311935424805 88.49999237060547 44.99999618530273 88.49999237060547 Z" stroke="none"/>
                  <path d="M 44.99999618530273 2.999992370605469 C 39.32870864868164 2.999992370605469 33.82865142822266 4.11004638671875 28.65262603759766 6.299331665039062 C 23.65165710449219 8.414566040039062 19.15968322753906 11.44333648681641 15.301513671875 15.30150604248047 C 11.44333648681641 19.15967559814453 8.414566040039062 23.65164947509766 6.299339294433594 28.65262222290039 C 4.110054016113281 33.82864761352539 2.999992370605469 39.32870483398438 2.999992370605469 44.99999237060547 C 2.999992370605469 50.67127990722656 4.110054016113281 56.17132186889648 6.299339294433594 61.34736633300781 C 8.414566040039062 66.34833526611328 11.44333648681641 70.84029388427734 15.301513671875 74.69846343994141 C 19.15968322753906 78.55663299560547 23.65165710449219 81.58540344238281 28.65262603759766 83.70063781738281 C 33.82865142822266 85.88992309570312 39.32870864868164 86.99997711181641 44.99999618530273 86.99997711181641 C 50.67128372192383 86.99997711181641 56.17134094238281 85.88992309570312 61.34736633300781 83.70063781738281 C 66.34834289550781 81.58540344238281 70.84030914306641 78.55663299560547 74.69847869873047 74.69846343994141 C 78.55665588378906 70.84029388427734 81.58542633056641 66.34833526611328 83.70065307617188 61.34736633300781 C 85.88993835449219 56.17132186889648 87 50.67127990722656 87 44.99999237060547 C 87 39.32870483398438 85.88993835449219 33.82864761352539 83.70065307617188 28.65262222290039 C 81.58542633056641 23.65164947509766 78.55665588378906 19.15967559814453 74.69847869873047 15.30150604248047 C 70.84030914306641 11.44333648681641 66.34834289550781 8.414566040039062 61.34736633300781 6.299331665039062 C 56.17134094238281 4.11004638671875 50.67128372192383 2.999992370605469 44.99999618530273 2.999992370605469 M 44.99999618530273 -7.62939453125e-06 C 69.85281372070312 -7.62939453125e-06 90 20.14717864990234 90 44.99999237060547 C 90 69.85279083251953 69.85281372070312 89.99997711181641 44.99999618530273 89.99997711181641 C 20.14717864990234 89.99997711181641 -7.62939453125e-06 69.85279083251953 -7.62939453125e-06 44.99999237060547 C -7.62939453125e-06 20.14717864990234 20.14717864990234 -7.62939453125e-06 44.99999618530273 -7.62939453125e-06 Z" stroke="none" fill="#86b60c"/>
                </g>
              </g>
            </g>
          </g>
        </g>
      </g>
    </g>
    <g id="inspire-idea_14781819_3_" data-name="inspire-idea_14781819 (3)" transform="translate(10.71 11.263)">
      <g id="Grupo_1176319" data-name="Grupo 1176319" transform="translate(8.053 7.501)">
        <path id="Trazado_1034450" data-name="Trazado 1034450" d="M87.905,15.776c0,10.342-11.084,26.3-21.426,26.3-1.491,0-2.905-4.564-4.306-10.086V17.917a10.416,10.416,0,0,1,13.919-9.8L76.885,9.2l.792-1.082a10.316,10.316,0,0,1,6.652-.108C87.542,10.254,87.905,13.767,87.905,15.776Z" transform="translate(-56.46 -7.503)" fill="#d78878"/>
        <path id="Trazado_1034451" data-name="Trazado 1034451" d="M91.573,22.206v34.75h-29.4V36.271A18.741,18.741,0,0,0,84.327,12.29,10.4,10.4,0,0,1,91.573,22.206Z" transform="translate(-56.459 -11.785)" fill="#ca6e59"/>
        <path id="Trazado_1034452" data-name="Trazado 1034452" d="M69.115,416.74l.636,1c1.162,3.325-2.736,2.826-2.889,5.665l-1.872.746H39.526l-.989-.408c-2.926-1.807-4.987-1.921-3.071-6.976,1.665-1.134,3.745-1.468,5.669-1.965.5-.131,22.047-.141,22.628,0A18.28,18.28,0,0,1,69.115,416.74Z" transform="translate(-31.906 -371.713)" fill="#8ac9fe"/>
        <path id="Trazado_1034453" data-name="Trazado 1034453" d="M15.673,441.339v.324H8.349a.3.3,0,0,1-.3-.3,9.113,9.113,0,0,1,.856-3.924,7.964,7.964,0,0,1,2.58-3.078l.122-.086C15.673,436.25,15.521,438.5,15.673,441.339Z" transform="translate(-8.053 -389.22)" fill="#60b7ff"/>
        <path id="Trazado_1034454" data-name="Trazado 1034454" d="M331.088,440.7l-2.632.682H321.4v-.324c.153-2.839,0-5.089,4.061-7.059l.064-.033a7.362,7.362,0,0,1,1.741,1.493Z" transform="translate(-288.32 -388.943)" fill="#60b7ff"/>
        <path id="Trazado_1034455" data-name="Trazado 1034455" d="M119.959,342.428a2.535,2.535,0,0,0,2.016-2.4q0-.041,0-.077v-5h8.815v5q0,.031,0,.065a2.53,2.53,0,0,0,2.033,2.4l1.9.4-2.408,3.45-5.857.207-7.157-.171-1.792-3.426Z" transform="translate(-105.959 -300.377)" fill="#ffb09e"/>
        <path id="Trazado_1034456" data-name="Trazado 1034456" d="M49.315,185.667a6.033,6.033,0,0,1-4.635-5.79h0a2.376,2.376,0,0,1,2.381-2.371h2.181l2.753,4.653Z" transform="translate(-40.813 -159.557)" fill="#ffb09e"/>
        <path id="Trazado_1034457" data-name="Trazado 1034457" d="M109.489,91.439a8.423,8.423,0,0,0,2.382-5.868V78.525a1.538,1.538,0,0,1-1.46-1.048l-.911-2.721a8.061,8.061,0,0,0-3.512-4.361l-5.953-3.509a.317.317,0,0,0-.322,0l-5.905,3.48a8.069,8.069,0,0,0-3.56,4.391l-.911,2.721a1.538,1.538,0,0,1-1.46,1.048v7.046a8.433,8.433,0,0,0,2.685,6.166l4.045,3.773a7.73,7.73,0,0,0,10.533,0Z" transform="translate(-79.45 -60.576)" fill="#ffcebf"/>
        <path id="Trazado_1034458" data-name="Trazado 1034458" d="M182.725,275.4a.316.316,0,0,1,.317.3c.035.84-.1,3.144-2.569,3.144-2.453,0-2.6-2.3-2.567-3.143a.316.316,0,0,1,.317-.3Z" transform="translate(-159.969 -247.119)" fill="#eaf6ff"/>
        <path id="Trazado_1034459" data-name="Trazado 1034459" d="M188.024,444.491v3.26a1.836,1.836,0,0,1-1.84,1.861h0a1.836,1.836,0,0,1-1.84-1.833v-3.289l1.893-.381Z" transform="translate(-165.731 -398.012)" fill="#c4e2ff"/>
        <path id="Trazado_1034460" data-name="Trazado 1034460" d="M94.738,399.994l-2.928.633a.616.616,0,0,0-.479.694l.1.638a5.789,5.789,0,0,0,8.282,4.319l3.328-1.639h0a10.762,10.762,0,0,1-7.673-4.407A.614.614,0,0,0,94.738,399.994Z" transform="translate(-82.532 -358.541)" fill="#eaf6ff"/>
        <path id="Trazado_1034461" data-name="Trazado 1034461" d="M210.569,399.994l2.928.633a.616.616,0,0,1,.479.694l-.1.638a5.789,5.789,0,0,1-8.282,4.319l-3.328-1.639h0a10.762,10.762,0,0,0,7.673-4.407A.614.614,0,0,1,210.569,399.994Z" transform="translate(-181.763 -358.541)" fill="#eaf6ff"/>
        <g id="Grupo_1176316" data-name="Grupo 1176316" transform="translate(38.038 28.641)">
          <path id="Trazado_1034462" data-name="Trazado 1034462" d="M380.868,387.922v4.06a12.366,12.366,0,0,1-.278,2.462,8.646,8.646,0,0,1-1,1.8c-.64,1.077-.36,2.186-.355,3.438l-.811.519h-8v-1.738a4.366,4.366,0,0,0-1.149-2.951,3.614,3.614,0,0,1-.949-2.439v-1.75a2.141,2.141,0,0,1,.914-1.755Z" transform="translate(-368.323 -376.397)" fill="#ffcebf"/>
          <g id="Grupo_1176315" data-name="Grupo 1176315" transform="translate(9.765 6.817)">
            <path id="Trazado_1034463" data-name="Trazado 1034463" d="M463.6,344.031v4.026a.844.844,0,0,1-.339.756c-.253.253-1.144-.134-1.53-.131l-.688-.736-.223-2.617.73-.564a1.416,1.416,0,0,1,1.379-1.414C463.389,343.523,463.6,343.762,463.6,344.031Z" transform="translate(-460.815 -343.35)" fill="#ffcebf"/>
            <path id="Trazado_1034464" data-name="Trazado 1034464" d="M472.1,344.755v3.181a1.417,1.417,0,0,1-2.562.832l-.091-.1a1.417,1.417,0,0,0,1.4-1.417v-3.178a1.408,1.408,0,0,0-.206-.736h.038A1.416,1.416,0,0,1,472.1,344.755Z" transform="translate(-468.532 -343.34)" fill="#ffb09e"/>
          </g>
          <path id="Trazado_1034465" data-name="Trazado 1034465" d="M467.177,386.87V391.1a6.906,6.906,0,0,1-.971,3.532,6.907,6.907,0,0,0-.97,3.558l0,.746a.317.317,0,0,1-.317.318h-.974l0-1.064a6.919,6.919,0,0,1,.971-3.558,6.905,6.905,0,0,0,.971-3.532v-4.052Z" transform="translate(-453.847 -375.457)" fill="#ffb09e"/>
          <path id="Trazado_1034466" data-name="Trazado 1034466" d="M381.875,281.39v11.437c0,.821-1.344,1.493-2.165,1.493l.7-1.866-.965-.918V281.39a1.5,1.5,0,0,1,.881-1.36A1.381,1.381,0,0,1,381.875,281.39Z" transform="translate(-378.268 -279.897)" fill="#ffcebf"/>
          <path id="Trazado_1034467" data-name="Trazado 1034467" d="M408.15,332.211v3.752c0,.6-.982,1.129-1.5,1.362a1.5,1.5,0,0,1-.884-1.362l-.365-.081V332.34l.365-.129a1.5,1.5,0,0,1,.884-1.361C407.9,331.01,408.15,331.607,408.15,332.211Z" transform="translate(-401.485 -325.351)" fill="#ffcebf"/>
          <path id="Trazado_1034468" data-name="Trazado 1034468" d="M437.755,332.211v3.979c0,.6-1.092,1.128-1.612,1.361a1.5,1.5,0,0,1-.884-1.361l-.356-.227v-3.591l.356-.161a1.5,1.5,0,0,1,.884-1.361C437.559,331.042,437.755,331.607,437.755,332.211Z" transform="translate(-427.874 -325.351)" fill="#ffcebf"/>
          <path id="Trazado_1034469" data-name="Trazado 1034469" d="M390.009,280.263v10.828a.675.675,0,0,1-1.345,0V280.263a1.5,1.5,0,0,0-.88-1.36,1.47,1.47,0,0,1,.612-.133h.119A1.5,1.5,0,0,1,390.009,280.263Z" transform="translate(-385.729 -278.77)" fill="#ffb09e"/>
          <path id="Trazado_1034470" data-name="Trazado 1034470" d="M419.445,331.093v3.752a1.5,1.5,0,0,1-1.493,1.494h-.12a1.458,1.458,0,0,1-.609-.132,1.5,1.5,0,0,0,.884-1.362v-3.752a1.5,1.5,0,0,0-.884-1.361,1.459,1.459,0,0,1,.609-.132h.12A1.5,1.5,0,0,1,419.445,331.093Z" transform="translate(-412.06 -324.233)" fill="#ffb09e"/>
          <path id="Trazado_1034471" data-name="Trazado 1034471" d="M448.865,331.093v3.979a1.5,1.5,0,0,1-1.494,1.493h-.119a1.455,1.455,0,0,1-.609-.132,1.5,1.5,0,0,0,.883-1.361v-3.979a1.5,1.5,0,0,0-.883-1.361,1.455,1.455,0,0,1,.609-.132h.119A1.5,1.5,0,0,1,448.865,331.093Z" transform="translate(-438.374 -324.233)" fill="#ffb09e"/>
          <path id="Trazado_1034472" data-name="Trazado 1034472" d="M389.923,367.118a3.2,3.2,0,0,1-.068.657c-.151.721-.775,1.387-2.082,1.6-.593.095-3.566-.415-4.206-.348l-1.142,1.752-2.985-1.561v-1.35l2.646-1.9a2.965,2.965,0,0,1,1.694-.551l4.394-.041A1.751,1.751,0,0,1,389.923,367.118Z" transform="translate(-378.265 -356.225)" fill="#ffb09e"/>
          <path id="Trazado_1034473" data-name="Trazado 1034473" d="M381.01,381.076l1.25-1.682a.317.317,0,0,1,.216-.125l2.7-.328a2.144,2.144,0,0,0,1.478-2.056.721.721,0,0,0-.726-.706h-3.975a2.683,2.683,0,0,0-1.539.485l-3.431,2.4Z" transform="translate(-376.07 -365.894)" fill="#ffcebf"/>
        </g>
        <g id="Grupo_1176318" data-name="Grupo 1176318" transform="translate(29.406 2.435)">
          <path id="Trazado_1034474" data-name="Trazado 1034474" d="M307.743,39.029a12.3,12.3,0,0,1-12.212,12.489c-2.228,0-7.119-1.635-7.755-3.411l.12-.486a.313.313,0,0,0-.027-.221A11.529,11.529,0,0,1,305.72,33.445,10.945,10.945,0,0,1,307.743,39.029Z" transform="translate(-286.565 -30.57)" fill="#eaf6ff"/>
          <path id="Trazado_1034475" data-name="Trazado 1034475" d="M310.584,68.889a11.546,11.546,0,0,1-17.3,7.373.315.315,0,0,0-.224-.041l-4.754.906a.317.317,0,0,1-.367-.387l1.057-4.276A12.433,12.433,0,0,0,306.935,57.8,11.5,11.5,0,0,1,310.584,68.889Z" transform="translate(-287.781 -54.925)" fill="#d8ecfe"/>
          <g id="Grupo_1176317" data-name="Grupo 1176317" transform="translate(5.579 2.872)">
            <path id="Trazado_1034476" data-name="Trazado 1034476" d="M349.945,64.377c0,3.089-3.245,6.077-6.4,6.077-.478,0-1,.325-1.83-.908a6.72,6.72,0,0,0-.826-1.453,5.722,5.722,0,0,1,3.229-9.475C348.452,58.617,349.945,61.629,349.945,64.377Z" transform="translate(-339.409 -58.528)" fill="#ffe177"/>
            <path id="Trazado_1034477" data-name="Trazado 1034477" d="M368.928,63.494a5.7,5.7,0,0,1-1.456,3.813,6.909,6.909,0,0,0-1.386,4.12v.358l-5.761.019v-.316a9.672,9.672,0,0,0-.708-3.148,5.794,5.794,0,0,0,1.386.167c3.153,0,5.883-2.053,5.883-5.142a5.626,5.626,0,0,0-4.692-5.5,5.727,5.727,0,0,1,6.733,5.633Z" transform="translate(-357.483 -57.772)" fill="#ffd15b"/>
            <path id="Trazado_1034478" data-name="Trazado 1034478" d="M370.884,188.445l.9,1.749c0,.949-.569,1.749-2.613,1.749h-.449A1.718,1.718,0,0,1,367,190.225v-1.78h3.884Z" transform="translate(-364.087 -174.648)" fill="#5e6577"/>
            <path id="Trazado_1034479" data-name="Trazado 1034479" d="M390.975,188.446v1.78a1.718,1.718,0,0,1-1.718,1.718h-1.734a1.717,1.717,0,0,0,1.717-1.718v-1.78Z" transform="translate(-382.443 -174.649)" fill="#4d5263"/>
            <path id="Trazado_1034480" data-name="Trazado 1034480" d="M358.351,169.523c0,.38.231.811,0,1.061a6.918,6.918,0,0,1-2.3.545h-4.226a1.329,1.329,0,0,1-1.276-1.377,1.435,1.435,0,0,1,.373-.975,1.23,1.23,0,0,1,.9-.4h4.226C356.759,168.374,358.351,168.762,358.351,169.523Z" transform="translate(-349.376 -156.696)" fill="#73788c"/>
            <path id="Trazado_1034481" data-name="Trazado 1034481" d="M406.249,169.752a1.433,1.433,0,0,1-.373.974,1.23,1.23,0,0,1-.9.4h-2.314a1.228,1.228,0,0,0,.9-.4,1.433,1.433,0,0,0,.373-.974,1.33,1.33,0,0,0-1.276-1.378h2.314A1.33,1.33,0,0,1,406.249,169.752Z" transform="translate(-395.981 -156.696)" fill="#5e6577"/>
          </g>
        </g>
      </g>
      <g id="Grupo_1176327" data-name="Grupo 1176327" transform="translate(8.053 7.5)">
        <line id="Línea_818" data-name="Línea 818" y1="19.812" transform="translate(35.115 24.041)" fill="none" stroke="#000" stroke-linecap="round" stroke-linejoin="round" stroke-miterlimit="10" stroke-width="1.5"/>
        <line id="Línea_819" data-name="Línea 819" y2="6.703" transform="translate(5.714 37.15)" fill="none" stroke="#000" stroke-linecap="round" stroke-linejoin="round" stroke-miterlimit="10" stroke-width="1.5"/>
        <line id="Línea_820" data-name="Línea 820" y2="8.693" transform="translate(5.714 24.762)" fill="none" stroke="#000" stroke-linecap="round" stroke-linejoin="round" stroke-miterlimit="10" stroke-width="1.5"/>
        <path id="Trazado_1034482" data-name="Trazado 1034482" d="M90.034,12.464A10.428,10.428,0,0,0,77.628,8.13h0a2.2,2.2,0,0,1-1.49,0l-.025-.009a10.417,10.417,0,0,0-13.941,9.793V25.45" transform="translate(-56.458 -7.5)" fill="none" stroke="#000" stroke-linecap="round" stroke-linejoin="round" stroke-miterlimit="10" stroke-width="1.5"/>
        <g id="Grupo_1176320" data-name="Grupo 1176320" transform="translate(0 35.843)">
          <path id="Trazado_1034483" data-name="Trazado 1034483" d="M16.845,416.711a15.2,15.2,0,0,0-5.355,1.94,8.4,8.4,0,0,0-3.437,7v.3" transform="translate(-8.053 -409.349)" fill="none" stroke="#000" stroke-linecap="round" stroke-linejoin="round" stroke-miterlimit="10" stroke-width="1.5"/>
          <path id="Trazado_1034484" data-name="Trazado 1034484" d="M136.6,346.985v3.732q0,.036,0,.077a2.535,2.535,0,0,1-2.016,2.4l-.717.153" transform="translate(-120.579 -346.985)" fill="none" stroke="#000" stroke-linecap="round" stroke-linejoin="round" stroke-miterlimit="10" stroke-width="1.5"/>
          <path id="Trazado_1034485" data-name="Trazado 1034485" d="M246.105,353.355l-.822-.169a2.531,2.531,0,0,1-2.033-2.4c0-.023,0-.045,0-.065v-3.732" transform="translate(-218.417 -346.985)" fill="none" stroke="#000" stroke-linecap="round" stroke-linejoin="round" stroke-miterlimit="10" stroke-width="1.5"/>
          <path id="Trazado_1034486" data-name="Trazado 1034486" d="M318.979,418.95a14.538,14.538,0,0,0-5.764-2.387" transform="translate(-280.995 -409.217)" fill="none" stroke="#000" stroke-linecap="round" stroke-linejoin="round" stroke-miterlimit="10" stroke-width="1.5"/>
        </g>
        <path id="Trazado_1034487" data-name="Trazado 1034487" d="M41.768,434.275c4.06,1.97,3.908,4.221,4.06,7.06v.324" transform="translate(-38.208 -389.215)" fill="none" stroke="#000" stroke-linecap="round" stroke-linejoin="round" stroke-miterlimit="10" stroke-width="1.5"/>
        <path id="Trazado_1034488" data-name="Trazado 1034488" d="M325.467,434.275c-4.06,1.97-3.908,4.221-4.06,7.06v.355" transform="translate(-288.323 -389.215)" fill="none" stroke="#000" stroke-linecap="round" stroke-linejoin="round" stroke-miterlimit="10" stroke-width="1.5"/>
        <line id="Línea_821" data-name="Línea 821" y1="5.178" transform="translate(20.425 0.865)" fill="none" stroke="#000" stroke-linecap="round" stroke-linejoin="round" stroke-miterlimit="10" stroke-width="1.5"/>
        <path id="Trazado_1034489" data-name="Trazado 1034489" d="M49.241,185.667a5.967,5.967,0,0,1-4.561-5.79h0a2.376,2.376,0,0,1,2.381-2.371h2.181" transform="translate(-40.813 -159.556)" fill="none" stroke="#000" stroke-linecap="round" stroke-linejoin="round" stroke-miterlimit="10" stroke-width="1.5"/>
        <path id="Trazado_1034490" data-name="Trazado 1034490" d="M93.808,100.213a8.069,8.069,0,0,0-3.56,4.391l-.911,2.721a1.538,1.538,0,0,1-1.46,1.048v7.046a8.433,8.433,0,0,0,2.685,6.166l4.045,3.773a7.73,7.73,0,0,0,10.533,0l4.348-4.071a8.423,8.423,0,0,0,2.382-5.868v-.663" transform="translate(-79.449 -90.424)" fill="none" stroke="#000" stroke-linecap="round" stroke-linejoin="round" stroke-miterlimit="10" stroke-width="1.5"/>
        <path id="Trazado_1034491" data-name="Trazado 1034491" d="M186.553,72.886a8.064,8.064,0,0,0-2.867-2.923l-6.114-3.6-2.825,1.665" transform="translate(-157.147 -60.145)" fill="none" stroke="#000" stroke-linecap="round" stroke-linejoin="round" stroke-miterlimit="10" stroke-width="1.5"/>
        <g id="Grupo_1176322" data-name="Grupo 1176322" transform="translate(13.823 16.295)">
          <g id="Grupo_1176321" data-name="Grupo 1176321">
            <path id="Trazado_1034492" data-name="Trazado 1034492" d="M193.963,240.769a2.445,2.445,0,0,1-2.217,0" transform="translate(-186.174 -232.435)" fill="none" stroke="#000" stroke-linecap="round" stroke-linejoin="round" stroke-miterlimit="10" stroke-width="1.5"/>
            <path id="Trazado_1034493" data-name="Trazado 1034493" d="M143.031,162.353a4.218,4.218,0,0,0-4.056,0" transform="translate(-138.976 -161.834)" fill="none" stroke="#000" stroke-linecap="round" stroke-linejoin="round" stroke-miterlimit="10" stroke-width="1.5"/>
            <path id="Trazado_1034494" data-name="Trazado 1034494" d="M231.161,162.353a4.218,4.218,0,0,0-4.056,0" transform="translate(-217.801 -161.834)" fill="none" stroke="#000" stroke-linecap="round" stroke-linejoin="round" stroke-miterlimit="10" stroke-width="1.5"/>
            <line id="Línea_822" data-name="Línea 822" y1="1.797" transform="translate(11.333 3.046)" fill="none" stroke="#000" stroke-linecap="round" stroke-linejoin="round" stroke-miterlimit="10" stroke-width="1.5"/>
            <line id="Línea_823" data-name="Línea 823" y1="1.797" transform="translate(2.028 3.046)" fill="none" stroke="#000" stroke-linecap="round" stroke-linejoin="round" stroke-miterlimit="10" stroke-width="1.5"/>
          </g>
          <path id="Trazado_1034495" data-name="Trazado 1034495" d="M183.018,275.4s.48,3.447-2.545,3.447c-3,0-2.545-3.447-2.545-3.447Z" transform="translate(-173.792 -263.414)" fill="none" stroke="#000" stroke-linecap="round" stroke-linejoin="round" stroke-miterlimit="10" stroke-width="1.5"/>
        </g>
        <path id="Trazado_1034496" data-name="Trazado 1034496" d="M188.024,452.962v2.706a1.836,1.836,0,0,1-1.84,1.861h0a1.836,1.836,0,0,1-1.84-1.833v-2.678" transform="translate(-165.731 -405.929)" fill="none" stroke="#000" stroke-linecap="round" stroke-linejoin="round" stroke-miterlimit="10" stroke-width="1.5"/>
        <path id="Trazado_1034497" data-name="Trazado 1034497" d="M94.738,399.994l-2.928.633a.616.616,0,0,0-.479.694l.1.638a5.789,5.789,0,0,0,8.282,4.319l3.328-1.639h0a10.762,10.762,0,0,1-7.673-4.407A.614.614,0,0,0,94.738,399.994Z" transform="translate(-82.532 -358.541)" fill="none" stroke="#000" stroke-linecap="round" stroke-linejoin="round" stroke-miterlimit="10" stroke-width="1.5"/>
        <path id="Trazado_1034498" data-name="Trazado 1034498" d="M210.569,399.994l2.928.633a.616.616,0,0,1,.479.694l-.1.638a5.789,5.789,0,0,1-8.282,4.319l-3.328-1.639h0a10.762,10.762,0,0,0,7.673-4.407A.614.614,0,0,1,210.569,399.994Z" transform="translate(-181.763 -358.541)" fill="none" stroke="#000" stroke-linecap="round" stroke-linejoin="round" stroke-miterlimit="10" stroke-width="1.5"/>
        <g id="Grupo_1176325" data-name="Grupo 1176325" transform="translate(38.038 28.671)">
          <g id="Grupo_1176323" data-name="Grupo 1176323" transform="translate(10.496 6.817)">
            <path id="Trazado_1034499" data-name="Trazado 1034499" d="M470.57,345.041a1.415,1.415,0,0,0-1.415-1.415h0a1.417,1.417,0,0,0-1.417,1.417v3.178a1.417,1.417,0,0,0,1.417,1.417h0a1.417,1.417,0,0,0,1.417-1.417Z" transform="translate(-467.736 -343.626)" fill="none" stroke="#000" stroke-linecap="round" stroke-linejoin="round" stroke-miterlimit="10" stroke-width="1.5"/>
            <path id="Trazado_1034500" data-name="Trazado 1034500" d="M481.155,400.563" transform="translate(-479.738 -394.551)" fill="none" stroke="#000" stroke-linecap="round" stroke-linejoin="round" stroke-miterlimit="10" stroke-width="1.5"/>
          </g>
          <g id="Grupo_1176324" data-name="Grupo 1176324" transform="translate(11.388 11.453)">
            <path id="Trazado_1034501" data-name="Trazado 1034501" d="M478.123,387.53v4.234a6.877,6.877,0,0,1-.971,3.493h0a6.912,6.912,0,0,0-.971,3.558l0,1.064" transform="translate(-476.181 -387.53)" fill="none" stroke="#000" stroke-linecap="round" stroke-linejoin="round" stroke-miterlimit="10" stroke-width="1.5"/>
          </g>
          <path id="Trazado_1034502" data-name="Trazado 1034502" d="M424.183,414.75a5.793,5.793,0,0,1,1.237,5.3l-.044.169" transform="translate(-418.285 -400.423)" fill="none" stroke="#000" stroke-linecap="round" stroke-linejoin="round" stroke-miterlimit="10" stroke-width="1.5"/>
          <path id="Trazado_1034503" data-name="Trazado 1034503" d="M379.439,291.979V280.55a1.5,1.5,0,0,1,1.493-1.493h.12a1.5,1.5,0,0,1,1.493,1.493v9.286" transform="translate(-378.265 -279.057)" fill="none" stroke="#000" stroke-linecap="round" stroke-linejoin="round" stroke-miterlimit="10" stroke-width="1.5"/>
          <path id="Trazado_1034504" data-name="Trazado 1034504" d="M408.856,331.386a1.5,1.5,0,0,1,1.493-1.493h.12a1.5,1.5,0,0,1,1.493,1.493v3.4" transform="translate(-404.577 -324.526)" fill="none" stroke="#000" stroke-linecap="round" stroke-linejoin="round" stroke-miterlimit="10" stroke-width="1.5"/>
          <path id="Trazado_1034505" data-name="Trazado 1034505" d="M438.271,334.748v-3.362a1.5,1.5,0,0,1,1.493-1.493h.12a1.5,1.5,0,0,1,1.493,1.493v1.425" transform="translate(-430.886 -324.526)" fill="none" stroke="#000" stroke-linecap="round" stroke-linejoin="round" stroke-miterlimit="10" stroke-width="1.5"/>
          <path id="Trazado_1034506" data-name="Trazado 1034506" d="M373.263,381.365l1.331-1.791,2.667-.344a2.144,2.144,0,0,0,1.478-2.037.726.726,0,0,0-.726-.725h-3.806a2.683,2.683,0,0,0-1.539.485l-3.431,2.4a2.143,2.143,0,0,0-.914,1.755v1.749a3.61,3.61,0,0,0,.949,2.439,4.368,4.368,0,0,1,1.148,2.952v1.738" transform="translate(-368.324 -366.183)" fill="none" stroke="#000" stroke-linecap="round" stroke-linejoin="round" stroke-miterlimit="10" stroke-width="1.5"/>
        </g>
        <path id="Trazado_1034507" data-name="Trazado 1034507" d="M309.445,44.143q-.035.195-.078.39a11.545,11.545,0,0,1-17.409,7.308l-5.36,1.022,1.323-5.357a11.529,11.529,0,1,1,21.593-7.058" transform="translate(-257.158 -28.133)" fill="none" stroke="#000" stroke-linecap="round" stroke-linejoin="round" stroke-miterlimit="10" stroke-width="1.5"/>
        <g id="Grupo_1176326" data-name="Grupo 1176326" transform="translate(35.155 5.845)">
          <path id="Trazado_1034508" data-name="Trazado 1034508" d="M343.436,74.2a6.555,6.555,0,0,0-.978-1.882,5.544,5.544,0,0,1,2.187-8.926" transform="translate(-341.02 -63.341)" fill="none" stroke="#000" stroke-linecap="round" stroke-linejoin="round" stroke-miterlimit="10" stroke-width="1.5"/>
          <path id="Trazado_1034509" data-name="Trazado 1034509" d="M410.351,62.863a5.543,5.543,0,0,1,2.372,8.954,6.848,6.848,0,0,0-.995,1.888" transform="translate(-403.031 -62.863)" fill="none" stroke="#000" stroke-linecap="round" stroke-linejoin="round" stroke-miterlimit="10" stroke-width="1.5"/>
          <line id="Línea_824" data-name="Línea 824" y1="3.949" transform="translate(5.552 6.76)" fill="none" stroke="#000" stroke-linecap="round" stroke-linejoin="round" stroke-miterlimit="10" stroke-width="1.5"/>
          <path id="Trazado_1034510" data-name="Trazado 1034510" d="M373.243,193.7v.548a2.112,2.112,0,0,1-2.112,2.112H369.9a2.112,2.112,0,0,1-2.112-2.112V193.7" transform="translate(-364.965 -179.887)" fill="none" stroke="#000" stroke-linecap="round" stroke-linejoin="round" stroke-miterlimit="10" stroke-width="1.5"/>
          <path id="Trazado_1034511" data-name="Trazado 1034511" d="M361.032,168.651h-5.443a1.445,1.445,0,0,1-1.445-1.445h0a1.445,1.445,0,0,1,1.445-1.445h5.443a1.445,1.445,0,0,1,1.445,1.445h0A1.445,1.445,0,0,1,361.032,168.651Z" transform="translate(-352.758 -154.897)" fill="none" stroke="#000" stroke-linecap="round" stroke-linejoin="round" stroke-miterlimit="10" stroke-width="1.5"/>
          <line id="Línea_825" data-name="Línea 825" x2="3.555" transform="translate(3.849 6.751)" fill="none" stroke="#000" stroke-linecap="round" stroke-linejoin="round" stroke-miterlimit="10" stroke-width="1.5"/>
        </g>
      </g>
    </g>
  </g>
</svg>
