<svg xmlns="http://www.w3.org/2000/svg" xmlns:xlink="http://www.w3.org/1999/xlink" width="108" height="108" viewBox="0 0 108 108">
  <defs>
    <filter id="Trazado_904820" x="0" y="0" width="108" height="108" filterUnits="userSpaceOnUse">
      <feOffset dy="3" input="SourceAlpha"/>
      <feGaussianBlur stdDeviation="3" result="blur"/>
      <feFlood flood-opacity="0.161"/>
      <feComposite operator="in" in2="blur"/>
      <feComposite in="SourceGraphic"/>
    </filter>
    <clipPath id="clip-path">
      <path id="path4692" d="M0-682.665H53.408v53.408H0Z" transform="translate(0 682.665)"/>
    </clipPath>
  </defs>
  <g id="Grupo_1173821" data-name="Grupo 1173821" transform="translate(9 6)">
    <g id="Grupo_1173585" data-name="Grupo 1173585" transform="translate(0 0)">
      <g id="Grupo_1173428" data-name="Grupo 1173428">
        <g id="Grupo_1171958" data-name="Grupo 1171958">
          <g id="Grupo_1167341" data-name="Grupo 1167341">
            <g id="Grupo_1166792" data-name="Grupo 1166792">
              <g transform="matrix(1, 0, 0, 1, -9, -6)" filter="url(#Trazado_904820)">
                <g id="Trazado_904820-2" data-name="Trazado 904820" transform="translate(9 6)" fill="#fff4e6">
                  <path d="M 44.99999618530273 88.49999237060547 C 39.12687301635742 88.49999237060547 33.43022155761719 87.35006713867188 28.06829643249512 85.08216857910156 C 22.88852119445801 82.89130401611328 18.23629570007324 79.75457763671875 14.24084663391113 75.75914001464844 C 10.24540901184082 71.76369476318359 7.108683586120605 67.11146545410156 4.917821407318115 61.93169403076172 C 2.649921178817749 56.56976699829102 1.499996185302734 50.87311553955078 1.499996185302734 44.99999237060547 C 1.499996185302734 39.12686920166016 2.649921178817749 33.43021774291992 4.917821407318115 28.06829261779785 C 7.108683586120605 22.88851737976074 10.24540901184082 18.23630523681641 14.24084663391113 14.24085521697998 C 18.23629570007324 10.24540519714355 22.88852119445801 7.108692169189453 28.06829643249512 4.917829990386963 C 33.43022155761719 2.649929761886597 39.12687301635742 1.500004887580872 44.99999618530273 1.500004887580872 C 50.87311935424805 1.500004887580872 56.56977081298828 2.649929761886597 61.93169784545898 4.917829990386963 C 67.11147308349609 7.108692169189453 71.76369476318359 10.24540519714355 75.75914764404297 14.24085521697998 C 79.75458526611328 18.23630523681641 82.89131164550781 22.88851737976074 85.08216857910156 28.06829261779785 C 87.35007476806641 33.43021774291992 88.5 39.12686920166016 88.5 44.99999237060547 C 88.5 50.87311553955078 87.35007476806641 56.56976699829102 85.08216857910156 61.93169403076172 C 82.89131164550781 67.11146545410156 79.75458526611328 71.76369476318359 75.75914764404297 75.75914001464844 C 71.76369476318359 79.75457763671875 67.11147308349609 82.89130401611328 61.93169784545898 85.08216857910156 C 56.56977081298828 87.35006713867188 50.87311935424805 88.49999237060547 44.99999618530273 88.49999237060547 Z" stroke="none"/>
                  <path d="M 44.99999618530273 2.999992370605469 C 39.32870864868164 2.999992370605469 33.82865142822266 4.11004638671875 28.65262603759766 6.299331665039062 C 23.65165710449219 8.414566040039062 19.15968322753906 11.44333648681641 15.301513671875 15.30150604248047 C 11.44333648681641 19.15967559814453 8.414566040039062 23.65164947509766 6.299339294433594 28.65262222290039 C 4.110054016113281 33.82864761352539 2.999992370605469 39.32870483398438 2.999992370605469 44.99999237060547 C 2.999992370605469 50.67127990722656 4.110054016113281 56.17132186889648 6.299339294433594 61.34736633300781 C 8.414566040039062 66.34833526611328 11.44333648681641 70.84029388427734 15.301513671875 74.69846343994141 C 19.15968322753906 78.55663299560547 23.65165710449219 81.58540344238281 28.65262603759766 83.70063781738281 C 33.82865142822266 85.88992309570312 39.32870864868164 86.99997711181641 44.99999618530273 86.99997711181641 C 50.67128372192383 86.99997711181641 56.17134094238281 85.88992309570312 61.34736633300781 83.70063781738281 C 66.34834289550781 81.58540344238281 70.84030914306641 78.55663299560547 74.69847869873047 74.69846343994141 C 78.55665588378906 70.84029388427734 81.58542633056641 66.34833526611328 83.70065307617188 61.34736633300781 C 85.88993835449219 56.17132186889648 87 50.67127990722656 87 44.99999237060547 C 87 39.32870483398438 85.88993835449219 33.82864761352539 83.70065307617188 28.65262222290039 C 81.58542633056641 23.65164947509766 78.55665588378906 19.15967559814453 74.69847869873047 15.30150604248047 C 70.84030914306641 11.44333648681641 66.34834289550781 8.414566040039062 61.34736633300781 6.299331665039062 C 56.17134094238281 4.11004638671875 50.67128372192383 2.999992370605469 44.99999618530273 2.999992370605469 M 44.99999618530273 -7.62939453125e-06 C 69.85281372070312 -7.62939453125e-06 90 20.14717864990234 90 44.99999237060547 C 90 69.85279083251953 69.85281372070312 89.99997711181641 44.99999618530273 89.99997711181641 C 20.14717864990234 89.99997711181641 -7.62939453125e-06 69.85279083251953 -7.62939453125e-06 44.99999237060547 C -7.62939453125e-06 20.14717864990234 20.14717864990234 -7.62939453125e-06 44.99999618530273 -7.62939453125e-06 Z" stroke="none" fill="#ff9d1c"/>
                </g>
              </g>
            </g>
          </g>
        </g>
      </g>
    </g>
    <g id="g4686" transform="translate(16.314 700.961)">
      <g id="g4688" transform="translate(0 -682.665)">
        <g id="g4690" clip-path="url(#clip-path)">
          <g id="g4696" transform="translate(16.742 0.782)">
            <path id="path4698" d="M-36.871,0H-7.246A3.129,3.129,0,0,1-4.117,3.129V48.714a3.129,3.129,0,0,1-3.129,3.129H-36.871A3.129,3.129,0,0,1-40,48.714V3.129A3.129,3.129,0,0,1-36.871,0" transform="translate(40)" fill="#ffdcce"/>
          </g>
          <g id="g4700" transform="translate(21.175 5.476)">
            <path id="path4702" d="M-304.8-77.428h-24.722a1.147,1.147,0,0,1-1.147-1.147v-4.277A1.147,1.147,0,0,1-329.518-84H-304.8a1.147,1.147,0,0,1,1.147,1.147v4.277a1.147,1.147,0,0,1-1.147,1.147" transform="translate(330.666 84)" fill="#fead8a"/>
          </g>
          <g id="g4704" transform="translate(26.702 26.336)">
            <path id="path4706" d="M0-309.749v-24.725a1.565,1.565,0,0,1,1.565-1.565H3.913a1.565,1.565,0,0,1,1.565,1.565v24.725Z" transform="translate(0 336.039)" fill="#fead8a"/>
          </g>
          <g id="g4708" transform="translate(35.31 31.03)">
            <path id="path4710" d="M-64.544-254.444h-5.478v-20.031a1.565,1.565,0,0,1,1.565-1.565h2.349a1.565,1.565,0,0,1,1.565,1.565Z" transform="translate(70.022 276.039)" fill="#fead8a"/>
          </g>
          <g id="g4712" transform="translate(43.917 21.642)">
            <path id="path4714" d="M-64.544-365.055h-5.478v-29.419a1.565,1.565,0,0,1,1.565-1.565h2.349a1.565,1.565,0,0,1,1.565,1.565Z" transform="translate(70.022 396.039)" fill="#fead8a"/>
          </g>
          <g id="g4716" transform="translate(0.782 35.724)">
            <path id="path4718" d="M-293.121-208.355a1.043,1.043,0,0,0,1.043-1.043v-5.269a6.44,6.44,0,0,0-5.205-6.3l-3.916-1.1a1.812,1.812,0,0,1-1.322-1.745v-2.223h-5.036v2.222a1.81,1.81,0,0,1-1.32,1.743l-3.919,1.1a6.44,6.44,0,0,0-5.2,6.3v5.27a1.043,1.043,0,0,0,1.043,1.043Z" transform="translate(317.999 226.039)" fill="#fd9468"/>
          </g>
          <g id="g4720" transform="translate(9.904 35.724)">
            <path id="path4722" d="M-90.431-46.74a7.283,7.283,0,0,1-3.545,1.1,7.329,7.329,0,0,1-4.131-1.1A1.814,1.814,0,0,0-96.8-48.275a1.988,1.988,0,0,0,.011-.21v-2.222h5.036v2.224a1.809,1.809,0,0,0,.627,1.371,1.814,1.814,0,0,0,.692.372" transform="translate(98.106 50.707)" fill="#ffcebf"/>
          </g>
          <g id="g4724" transform="translate(7.13 17.356)">
            <path id="path4726" d="M-155.83-135.236h-13.226v-7.3a4.179,4.179,0,0,1,4.181-4.177h4.863a4.179,4.179,0,0,1,4.181,4.177Z" transform="translate(169.056 146.714)" fill="#aa6a51"/>
          </g>
          <g id="g4728" transform="translate(16.252 18.327)">
            <path id="path4730" d="M-30.657,0a8.517,8.517,0,0,1-1.175,4.338A8.219,8.219,0,0,1-33.259,6.11l.337,4.4h3.767v-7.3A4.166,4.166,0,0,0-30.657,0" transform="translate(33.259)" fill="#935b44"/>
          </g>
          <g id="g4732" transform="translate(4.194 26.943)">
            <path id="path4734" d="M-34.6,0h-1.664a1.272,1.272,0,0,0-1.272,1.271V3.255a1.272,1.272,0,0,0,1.272,1.271H-34.6Z" transform="translate(37.535)" fill="#ffb09e"/>
          </g>
          <g id="g4736" transform="translate(20.356 26.943)">
            <path id="path4738" d="M0,0H1.664A1.272,1.272,0,0,1,2.936,1.271V3.255A1.272,1.272,0,0,1,1.664,4.526H0Z" fill="#ffb09e"/>
          </g>
          <g id="g4740" transform="translate(11.214 35.724)">
            <path id="path4742" d="M-66.859-42.352H-69.8a3.781,3.781,0,0,1-2.672-1.106l-.057-.057a1.99,1.99,0,0,0,.011-.21v-2.222h5.036v2.224a1.809,1.809,0,0,0,.627,1.371" transform="translate(72.533 45.947)" fill="#ffb09e"/>
          </g>
          <g id="g4744" transform="translate(7.13 24.436)">
            <path id="path4746" d="M-155.83-29.528v5.155a4.768,4.768,0,0,1-1.4,3.373l-.656.655a3.782,3.782,0,0,1-2.673,1.106h-3.771A3.782,3.782,0,0,1-167-20.344l-.656-.655a4.768,4.768,0,0,1-1.4-3.373v-5.155a9.749,9.749,0,0,0,5.138-.133,9.714,9.714,0,0,0,3.984-2.373,4.292,4.292,0,0,0,1.592,1.843,4.31,4.31,0,0,0,2.512.663" transform="translate(169.056 32.035)" fill="#ffcebf"/>
          </g>
          <g id="g4748" transform="translate(16.742 0.782)">
            <path id="path4750" d="M0-158.862v-10.354a3.129,3.129,0,0,1,3.129-3.129H32.754a3.129,3.129,0,0,1,3.129,3.129v45.584a3.129,3.129,0,0,1-3.129,3.129H9.96" transform="translate(0 172.345)" fill="none" stroke="#000" stroke-linecap="round" stroke-linejoin="round" stroke-miterlimit="10" stroke-width="1.5"/>
          </g>
          <g id="g4752" transform="translate(21.175 5.476)">
            <path id="path4754" d="M-304.8-77.428h-24.722a1.147,1.147,0,0,1-1.147-1.147v-4.277A1.147,1.147,0,0,1-329.518-84H-304.8a1.147,1.147,0,0,1,1.147,1.147v4.277A1.147,1.147,0,0,1-304.8-77.428Z" transform="translate(330.666 84)" fill="none" stroke="#000" stroke-linecap="round" stroke-linejoin="round" stroke-miterlimit="10" stroke-width="1.5"/>
          </g>
          <g id="g4756" transform="translate(22.74 16.742)">
            <path id="path4758" d="M-299.88,0h-25.452" transform="translate(325.332)" fill="none" stroke="#000" stroke-linecap="round" stroke-linejoin="round" stroke-miterlimit="10" stroke-width="1.5"/>
          </g>
          <g id="g4760" transform="translate(25.661 19.871)">
            <path id="path4762" d="M-194.185,0h-16.481" transform="translate(210.666)" fill="none" stroke="#000" stroke-linecap="round" stroke-linejoin="round" stroke-miterlimit="10" stroke-width="1.5"/>
          </g>
          <g id="g4764" transform="translate(26.702 26.336)">
            <path id="path4766" d="M0-162.267v-12.208a1.565,1.565,0,0,1,1.565-1.565H3.913a1.565,1.565,0,0,1,1.565,1.565v24.725" transform="translate(0 176.04)" fill="none" stroke="#000" stroke-linecap="round" stroke-linejoin="round" stroke-miterlimit="10" stroke-width="1.5"/>
          </g>
          <g id="g4768" transform="translate(35.31 31.03)">
            <path id="path4770" d="M0-254.444v-20.031a1.565,1.565,0,0,1,1.565-1.565H3.913a1.565,1.565,0,0,1,1.565,1.565v20.031" transform="translate(0 276.039)" fill="none" stroke="#000" stroke-linecap="round" stroke-linejoin="round" stroke-miterlimit="10" stroke-width="1.5"/>
          </g>
          <g id="g4772" transform="translate(43.917 21.642)">
            <path id="path4774" d="M0-365.055v-29.419a1.565,1.565,0,0,1,1.565-1.565H3.913a1.565,1.565,0,0,1,1.565,1.565v29.419" transform="translate(0 396.039)" fill="none" stroke="#000" stroke-linecap="round" stroke-linejoin="round" stroke-miterlimit="10" stroke-width="1.5"/>
          </g>
          <g id="g4776" transform="translate(0.782 37.179)">
            <path id="path4778" d="M-123.037,0V.767a1.812,1.812,0,0,1-1.321,1.743l-3.918,1.1a6.439,6.439,0,0,0-5.2,6.3v5.531" transform="translate(133.48)" fill="none" stroke="#000" stroke-linecap="round" stroke-linejoin="round" stroke-miterlimit="10" stroke-width="1.5"/>
          </g>
          <g id="g4780" transform="translate(16.261 37.179)">
            <path id="path4782" d="M0,0V.769A1.81,1.81,0,0,0,1.322,2.512l3.916,1.1a6.441,6.441,0,0,1,5.205,6.3v5.53" fill="none" stroke="#000" stroke-linecap="round" stroke-linejoin="round" stroke-miterlimit="10" stroke-width="1.5"/>
          </g>
          <g id="g4784" transform="translate(5.411 50.17)">
            <path id="path4786" d="M0,0V2.455" fill="none" stroke="#000" stroke-linecap="round" stroke-linejoin="round" stroke-miterlimit="10" stroke-width="1.5"/>
          </g>
          <g id="g4788" transform="translate(22.056 50.17)">
            <path id="path4790" d="M0,0V2.455" fill="none" stroke="#000" stroke-linecap="round" stroke-linejoin="round" stroke-miterlimit="10" stroke-width="1.5"/>
          </g>
          <g id="g4792" transform="translate(9.904 39.688)">
            <path id="path4794" d="M0,0A7.323,7.323,0,0,0,4.131,1.1,7.283,7.283,0,0,0,7.679,0" fill="none" stroke="#000" stroke-linecap="round" stroke-linejoin="round" stroke-miterlimit="10" stroke-width="1.5"/>
          </g>
          <g id="g4796" transform="translate(7.13 17.356)">
            <path id="path4798" d="M0-122.946V-129.2a4.179,4.179,0,0,1,4.181-4.177H9.045a4.179,4.179,0,0,1,4.181,4.177v6.258" transform="translate(0 133.381)" fill="none" stroke="#000" stroke-linecap="round" stroke-linejoin="round" stroke-miterlimit="10" stroke-width="1.5"/>
          </g>
          <g id="g4800" transform="translate(4.194 26.943)">
            <path id="path4802" d="M-34.6,0h-1.664a1.272,1.272,0,0,0-1.272,1.271V3.255a1.272,1.272,0,0,0,1.272,1.271H-34.6" transform="translate(37.535)" fill="none" stroke="#000" stroke-linecap="round" stroke-linejoin="round" stroke-miterlimit="10" stroke-width="1.5"/>
          </g>
          <g id="g4804" transform="translate(20.356 26.943)">
            <path id="path4806" d="M0,0H1.664A1.272,1.272,0,0,1,2.936,1.271V3.255A1.272,1.272,0,0,1,1.664,4.526H0" fill="none" stroke="#000" stroke-linecap="round" stroke-linejoin="round" stroke-miterlimit="10" stroke-width="1.5"/>
          </g>
          <g id="g4808" transform="translate(7.13 24.436)">
            <path id="path4810" d="M-155.83-29.528v5.155a4.768,4.768,0,0,1-1.4,3.373l-.656.655a3.782,3.782,0,0,1-2.673,1.106h-3.771A3.782,3.782,0,0,1-167-20.344l-.656-.655a4.768,4.768,0,0,1-1.4-3.373v-5.155a9.749,9.749,0,0,0,5.138-.133,9.714,9.714,0,0,0,3.984-2.373,4.292,4.292,0,0,0,1.592,1.843A4.31,4.31,0,0,0-155.83-29.528Z" transform="translate(169.056 32.035)" fill="none" stroke="#000" stroke-linecap="round" stroke-linejoin="round" stroke-miterlimit="10" stroke-width="1.5"/>
          </g>
          <g id="g4812" transform="translate(16.252 18.326)">
            <path id="path4814" d="M0-71.99a8.217,8.217,0,0,0,1.427-1.771A8.517,8.517,0,0,0,2.6-78.1" transform="translate(0 78.1)" fill="none" stroke="#000" stroke-linecap="round" stroke-linejoin="round" stroke-miterlimit="10" stroke-width="1.5"/>
          </g>
        </g>
      </g>
    </g>
  </g>
</svg>
