<svg xmlns="http://www.w3.org/2000/svg" xmlns:xlink="http://www.w3.org/1999/xlink" width="93.934" height="93.934" viewBox="0 0 93.934 93.934">
  <defs>
    <filter id="Trazado_982547" x="0" y="0" width="93.934" height="93.934" filterUnits="userSpaceOnUse">
      <feOffset dy="3" input="SourceAlpha"/>
      <feGaussianBlur stdDeviation="3" result="blur"/>
      <feFlood flood-opacity="0.161"/>
      <feComposite operator="in" in2="blur"/>
      <feComposite in="SourceGraphic"/>
    </filter>
  </defs>
  <g id="Grupo_1176309" data-name="Grupo 1176309" transform="translate(-189.033 -1986)">
    <g id="Grupo_1172970" data-name="Grupo 1172970" transform="translate(-1 -9042)">
      <g id="Grupo_1171971" data-name="Grupo 1171971" transform="translate(199.033 11034)">
        <g id="Grupo_1167337" data-name="Grupo 1167337" transform="translate(0)">
          <g id="Grupo_1166720" data-name="Grupo 1166720">
            <g id="Grupo_1164305" data-name="Grupo 1164305">
              <g id="Grupo_1163948" data-name="Grupo 1163948">
                <g id="Grupo_1158168" data-name="Grupo 1158168">
                  <g id="Grupo_1152576" data-name="Grupo 1152576">
                    <g id="Grupo_1148633" data-name="Grupo 1148633">
                      <g id="Grupo_1148525" data-name="Grupo 1148525">
                        <g transform="matrix(1, 0, 0, 1, -9, -6)" filter="url(#Trazado_982547)">
                          <g id="Trazado_982547-2" data-name="Trazado 982547" transform="translate(9 6)" fill="#e9f9fd">
                            <path d="M 37.966796875 74.43359375 C 33.04315185546875 74.43359375 28.26757431030273 73.46962738037109 23.77274131774902 71.56847381591797 C 19.43047523498535 69.73184967041016 15.53040790557861 67.10224914550781 12.18087482452393 63.75271987915039 C 8.831341743469238 60.4031867980957 6.201741218566895 56.50312042236328 4.365118980407715 52.16086196899414 C 2.463963508605957 47.66601943969727 1.499996900558472 42.89044189453125 1.499996900558472 37.966796875 C 1.499996900558472 33.04315185546875 2.463963508605957 28.26757431030273 4.365118980407715 23.77274131774902 C 6.201741218566895 19.43047523498535 8.831341743469238 15.53040790557861 12.18087482452393 12.18087482452393 C 15.53040790557861 8.831341743469238 19.43047523498535 6.201741218566895 23.77274131774902 4.365118980407715 C 28.26757431030273 2.463963508605957 33.04315185546875 1.499996900558472 37.966796875 1.499996900558472 C 42.89044189453125 1.499996900558472 47.66601943969727 2.463963508605957 52.16086196899414 4.365118980407715 C 56.50312042236328 6.201741218566895 60.4031867980957 8.831341743469238 63.75271987915039 12.18087482452393 C 67.10224914550781 15.53040790557861 69.73184967041016 19.43047523498535 71.56847381591797 23.77274131774902 C 73.46962738037109 28.26757431030273 74.43359375 33.04315185546875 74.43359375 37.966796875 C 74.43359375 42.89044189453125 73.46962738037109 47.66601943969727 71.56847381591797 52.16086196899414 C 69.73184967041016 56.50313186645508 67.10224914550781 60.4031867980957 63.75271987915039 63.75271987915039 C 60.4031867980957 67.10224914550781 56.50313186645508 69.73184967041016 52.16086196899414 71.56847381591797 C 47.66601943969727 73.46962738037109 42.89044189453125 74.43359375 37.966796875 74.43359375 Z" stroke="none"/>
                            <path d="M 37.966796875 3 C 33.2449836730957 3 28.66600799560547 3.924095153808594 24.35705947875977 5.746635437011719 C 20.19359588623047 7.507637023925781 16.45379638671875 10.02928161621094 13.24153518676758 13.24153518676758 C 10.02927398681641 16.45379638671875 7.507621765136719 20.19359588623047 5.746635437011719 24.35705947875977 C 3.924095153808594 28.66600799560547 3 33.2449836730957 3 37.966796875 C 3 42.6886100769043 3.924095153808594 47.26758575439453 5.746635437011719 51.57653427124023 C 7.507621765136719 55.73999786376953 10.02927398681641 59.47979736328125 13.24153518676758 62.69205856323242 C 16.45379638671875 65.90431976318359 20.19359588623047 68.42597198486328 24.35705947875977 70.18695831298828 C 28.66600799560547 72.00949859619141 33.2449836730957 72.93359375 37.966796875 72.93359375 C 42.6886100769043 72.93359375 47.26758575439453 72.00949859619141 51.57653427124023 70.18695831298828 C 55.73999786376953 68.42597198486328 59.47979736328125 65.90431976318359 62.69205856323242 62.69205856323242 C 65.90431976318359 59.47979736328125 68.42597198486328 55.73999786376953 70.18695831298828 51.57653427124023 C 72.00949859619141 47.26758575439453 72.93359375 42.6886100769043 72.93359375 37.966796875 C 72.93359375 33.2449836730957 72.00949859619141 28.66600799560547 70.18695831298828 24.35705947875977 C 68.42597198486328 20.19359588623047 65.90431976318359 16.45379638671875 62.69205856323242 13.24153518676758 C 59.47979736328125 10.02928161621094 55.73999786376953 7.507637023925781 51.57653427124023 5.746635437011719 C 47.26758575439453 3.924095153808594 42.6886100769043 3 37.966796875 3 M 37.966796875 0 C 58.93528366088867 0 75.93359375 16.99832153320312 75.93359375 37.966796875 C 75.93359375 58.93528366088867 58.93528366088867 75.93359375 37.966796875 75.93359375 C 16.99831008911133 75.93359375 0 58.93528366088867 0 37.966796875 C 0 16.99832153320312 16.99831008911133 0 37.966796875 0 Z" stroke="none" fill="#1d7083"/>
                          </g>
                        </g>
                      </g>
                    </g>
                  </g>
                </g>
              </g>
            </g>
          </g>
        </g>
      </g>
    </g>
    <g id="matematicas" transform="translate(212.704 1991.277)">
      <g id="Grupo_1173364" data-name="Grupo 1173364" transform="translate(5.03 28.33)">
        <path id="Trazado_1028527" data-name="Trazado 1028527" d="M162.753,165.4h19.418v-21.84a6.71,6.71,0,0,0-5.075-2.27c-6.525,0-6.525,7.83-13.051,7.83a7.166,7.166,0,0,1-1.292-.113Z" transform="translate(-152.882 -141.287)" fill="#b3e59f"/>
        <path id="Trazado_1028528" data-name="Trazado 1028528" d="M164.046,225.69a7.353,7.353,0,0,0,1-.066V241.97h-2.289V225.577A7.166,7.166,0,0,0,164.046,225.69Z" transform="translate(-152.883 -217.86)" fill="#95d6a4"/>
        <path id="Trazado_1028529" data-name="Trazado 1028529" d="M64.814,167.516V151.124c-4.658-.846-5.531-6.237-9.871-7.467v23.859Z" transform="translate(-54.943 -143.44)" fill="#ffe177"/>
        <path id="Trazado_1028530" data-name="Trazado 1028530" d="M57.232,144.858v22.658H54.943V143.657A6.457,6.457,0,0,1,57.232,144.858Z" transform="translate(-54.943 -143.44)" fill="#ffd15b"/>
        <path id="Trazado_1028531" data-name="Trazado 1028531" d="M382.964,187.909h-7.976v-21.84c2.277,2.312,3.772,5.56,7.976,5.56Z" transform="translate(-345.685 -163.8)" fill="#ffe177"/>
        <path id="Trazado_1028532" data-name="Trazado 1028532" d="M377.28,168.7v19.209h-2.289v-21.84C375.8,166.89,376.511,167.83,377.28,168.7Z" transform="translate(-345.688 -163.799)" fill="#ffd15b"/>
      </g>
      <g id="Grupo_1173365" data-name="Grupo 1173365" transform="translate(0 16.946)">
        <path id="Trazado_1028533" data-name="Trazado 1028533" d="M238.834,157.049l-3.9-3.9a.687.687,0,0,0-.971.971l2.729,2.729H227.1V137.5l.236.283c1.626,1.951,3.469,4.162,7.053,4.162a.687.687,0,1,0,0-1.373c-2.941,0-4.426-1.782-6-3.668-1.626-1.951-3.469-4.162-7.053-4.162s-5.426,2.211-7.052,4.161a16.581,16.581,0,0,1-2.191,2.318.687.687,0,1,0,.866,1.066,17.851,17.851,0,0,0,2.38-2.5c1.572-1.886,3.057-3.667,6-3.667a5.968,5.968,0,0,1,4.388,1.87v20.866h-2.843a.687.687,0,1,0,0,1.373h13.809l-2.729,2.729a.687.687,0,0,0,.971.971l3.9-3.9A.686.686,0,0,0,238.834,157.049Z" transform="translate(-192.444 -122.136)"/>
        <path id="Trazado_1028534" data-name="Trazado 1028534" d="M27.233,51.658h-12V36.729c.2.014.4.023.605.023a7.9,7.9,0,0,0,1.451-.13.687.687,0,0,0-.253-1.35,6.515,6.515,0,0,1-1.2.106c-2.94,0-4.425-1.781-6-3.667a10.918,10.918,0,0,0-4.48-3.723v-8.7l2.729,2.729a.687.687,0,0,0,.971-.971l-3.9-3.9c-.016-.016-.033-.031-.051-.046l-.024-.018-.03-.022-.029-.018L5,17.027l-.03-.015L4.941,17l-.03-.011-.034-.012-.03-.008-.035-.009-.034-.005-.033,0-.059,0H4.67l-.059,0-.033,0-.034.005-.036.009-.03.008-.034.012L4.416,17l-.031.014-.03.015-.029.017-.029.018-.031.022-.023.017a.681.681,0,0,0-.051.046l-3.9,3.9a.687.687,0,1,0,.971.971l2.729-2.729V51.658H.687a.687.687,0,0,0,0,1.373H3.992v4.2a.687.687,0,1,0,1.373,0v-4.2H27.233a.687.687,0,1,0,0-1.373ZM5.365,29.48A10.881,10.881,0,0,1,8.79,32.59c1.3,1.555,2.73,3.273,5.073,3.907v15.16h-8.5Z" transform="translate(0 -16.946)"/>
        <path id="Trazado_1028535" data-name="Trazado 1028535" d="M246.862,269.843a.97.97,0,0,1-.72-.3.687.687,0,0,0-1.018.922,2.339,2.339,0,0,0,1.737.748,1.7,1.7,0,0,0,1.726-1.33,1.577,1.577,0,0,0-1.182-1.736c-.373-.138-.724-.286-.887-.357.006-.021.034-.055.107-.077a1.234,1.234,0,0,1,.893.226.687.687,0,0,0,.812-1.108,2.567,2.567,0,0,0-2.1-.433,1.484,1.484,0,0,0-1.071,1.2,1.364,1.364,0,0,0,.609,1.35.685.685,0,0,0,.1.052c.021.009.513.229,1.068.433.241.089.309.187.305.206A.374.374,0,0,1,246.862,269.843Z" transform="translate(-222.52 -243.486)"/>
        <path id="Trazado_1028536" data-name="Trazado 1028536" d="M127.571,437.594a.686.686,0,0,0-.641.442,2.276,2.276,0,1,0,0,4.091.686.686,0,0,0,1.328-.245v-3.6A.687.687,0,0,0,127.571,437.594Zm-1.638,3.39a.9.9,0,1,1,.9-.9A.9.9,0,0,1,125.933,440.984Z" transform="translate(-112.335 -399.08)"/>
        <path id="Trazado_1028537" data-name="Trazado 1028537" d="M346.557,420.833a2.357,2.357,0,0,0-1.089.262v-1.32a.687.687,0,1,0-1.373,0v5.3a.686.686,0,0,0,1.267.366,2.351,2.351,0,0,0,1.2.321,2.462,2.462,0,1,0,0-4.925Zm0,3.551a1.089,1.089,0,1,1,1.089-1.089A1.09,1.09,0,0,1,346.557,424.385Z" transform="translate(-312.59 -382.27)"/>
        <path id="Trazado_1028538" data-name="Trazado 1028538" d="M182.394,45.293v2.789a.687.687,0,1,0,1.373,0V45.3h.105a.687.687,0,1,0,0-1.373h-.105v-.462a.885.885,0,0,1,.221,0,.687.687,0,0,0,.227-1.354,1.812,1.812,0,0,0-1.388.308,1.254,1.254,0,0,0-.434.981v.533a.686.686,0,0,0,0,1.361Z" transform="translate(-165.149 -39.781)"/>
        <path id="Trazado_1028539" data-name="Trazado 1028539" d="M267.935,56.639a.687.687,0,0,0,.962-.135l.859-1.139.913,1.2a.687.687,0,0,0,1.094-.83l-1.148-1.513.95-1.26a.687.687,0,1,0-1.1-.827l-.716.95-.722-.952a.687.687,0,0,0-1.094.83l.957,1.261L267.8,55.677A.687.687,0,0,0,267.935,56.639Z" transform="translate(-243.155 -48.668)"/>
        <path id="Trazado_1028540" data-name="Trazado 1028540" d="M230.363,53.982a.687.687,0,0,0,.664-.864A6.709,6.709,0,0,1,231,49.305a.687.687,0,0,0-1.277-.506,7.9,7.9,0,0,0-.026,4.673A.687.687,0,0,0,230.363,53.982Z" transform="translate(-208.374 -45.49)"/>
        <path id="Trazado_1028541" data-name="Trazado 1028541" d="M334,53.118a.687.687,0,1,0,1.327.354A7.9,7.9,0,0,0,335.3,48.8a.687.687,0,1,0-1.275.51A6.715,6.715,0,0,1,334,53.118Z" transform="translate(-303.401 -45.49)"/>
      </g>
    </g>
  </g>
</svg>
