<svg xmlns="http://www.w3.org/2000/svg" width="163.817" height="66.475" viewBox="0 0 163.817 66.475">
  <g id="Grupo_1176345" data-name="Grupo 1176345" transform="translate(-924.448 -1639.525)">
    <path id="Trazado_1034642" data-name="Trazado 1034642" d="M6.732-7.471H6.7a2.6,2.6,0,0,0-.461-.207,1.691,1.691,0,0,0-.567-.1,1.664,1.664,0,0,0-.976.33,3.587,3.587,0,0,0-.848.87,6.243,6.243,0,0,0-.668,1.235A8.434,8.434,0,0,0,2.733-3.92L1.89,0H.448L1.714-5.977q.079-.369.158-.773t.145-.809q.066-.4.119-.773T2.215-9H3.639q-.026.264-.062.558t-.07.571q-.035.277-.07.5t-.053.347h.035a9.7,9.7,0,0,1,.571-.905,4.182,4.182,0,0,1,.611-.69,2.589,2.589,0,0,1,.681-.444,1.924,1.924,0,0,1,.782-.158,2.481,2.481,0,0,1,.488.048q.242.048.435.1Zm14.91.932H13.381V-7.7h8.262Zm0,3.744H13.381v-1.16h8.262Zm15.912-3.56a12.381,12.381,0,0,1-.286,2.8,6.533,6.533,0,0,1-.826,2.061A3.718,3.718,0,0,1,35.115-.215,3.633,3.633,0,0,1,33.327.22,3.393,3.393,0,0,1,31.635-.2a3.546,3.546,0,0,1-1.252-1.217,6.17,6.17,0,0,1-.773-1.964,12.146,12.146,0,0,1-.264-2.667,13.749,13.749,0,0,1,.277-2.918,6.674,6.674,0,0,1,.813-2.123,3.619,3.619,0,0,1,1.332-1.292,3.739,3.739,0,0,1,1.824-.435Q37.554-12.814,37.554-6.354Zm-1.477.141q0-5.379-2.558-5.379-2.7,0-2.7,5.476,0,5.106,2.646,5.106Q36.078-1.011,36.078-6.214ZM40.254.193a.933.933,0,0,1-.69-.29.955.955,0,0,1-.286-.694.969.969,0,0,1,.286-.7.926.926,0,0,1,.69-.294.95.95,0,0,1,.7.294.962.962,0,0,1,.29.7.947.947,0,0,1-.29.694A.958.958,0,0,1,40.254.193ZM51.023-7.058a12.554,12.554,0,0,1-.343,3.081,6.872,6.872,0,0,1-1,2.285A4.435,4.435,0,0,1,48.069-.268,4.663,4.663,0,0,1,45.907.22a5.179,5.179,0,0,1-2.2-.439V-1.6a4.479,4.479,0,0,0,2.232.589,3.242,3.242,0,0,0,1.525-.352,3.158,3.158,0,0,0,1.138-1.024,5.027,5.027,0,0,0,.712-1.657A9.354,9.354,0,0,0,49.564-6.3h-.035a2.879,2.879,0,0,1-2.812,1.626,3.782,3.782,0,0,1-1.485-.286,3.4,3.4,0,0,1-1.169-.809A3.7,3.7,0,0,1,43.3-7.014,4.466,4.466,0,0,1,43.024-8.6a4.634,4.634,0,0,1,.3-1.705,3.974,3.974,0,0,1,.844-1.332,3.775,3.775,0,0,1,1.283-.866,4.2,4.2,0,0,1,1.622-.308,3.59,3.59,0,0,1,1.683.382,3.373,3.373,0,0,1,1.235,1.116,5.515,5.515,0,0,1,.765,1.806A10.312,10.312,0,0,1,51.023-7.058ZM49.467-8.35a4.388,4.388,0,0,0-.189-1.327,3.213,3.213,0,0,0-.523-1.024,2.346,2.346,0,0,0-.8-.659,2.2,2.2,0,0,0-1.006-.233,2.282,2.282,0,0,0-.967.207,2.324,2.324,0,0,0-.778.58,2.77,2.77,0,0,0-.519.888A3.225,3.225,0,0,0,44.5-8.8a3.686,3.686,0,0,0,.18,1.2,2.5,2.5,0,0,0,.514.892,2.22,2.22,0,0,0,.8.558,2.714,2.714,0,0,0,1.042.193,2.387,2.387,0,0,0,.945-.189,2.5,2.5,0,0,0,.773-.51,2.349,2.349,0,0,0,.519-.756A2.324,2.324,0,0,0,49.467-8.35Zm3.227,4.834a3.353,3.353,0,0,1,.158-1.006,3.645,3.645,0,0,1,.453-.945,3.746,3.746,0,0,1,.729-.8,3.478,3.478,0,0,1,.989-.571,3.737,3.737,0,0,1-1.3-1.173A2.775,2.775,0,0,1,53.239-9.6a3.06,3.06,0,0,1,.268-1.283,3.091,3.091,0,0,1,.743-1.02,3.433,3.433,0,0,1,1.125-.672,4.006,4.006,0,0,1,1.406-.242,3.967,3.967,0,0,1,1.415.246,3.494,3.494,0,0,1,1.125.677,3.038,3.038,0,0,1,.738,1.02A3.082,3.082,0,0,1,60.323-9.6a2.775,2.775,0,0,1-.483,1.586,3.783,3.783,0,0,1-1.283,1.173,3.446,3.446,0,0,1,.976.571,3.8,3.8,0,0,1,.725.8,3.645,3.645,0,0,1,.453.945,3.353,3.353,0,0,1,.158,1.006A3.743,3.743,0,0,1,60.569-2,3.378,3.378,0,0,1,59.73-.831a3.875,3.875,0,0,1-1.292.76A4.829,4.829,0,0,1,56.781.2,4.765,4.765,0,0,1,55.138-.07a3.934,3.934,0,0,1-1.292-.76A3.4,3.4,0,0,1,53-2,3.7,3.7,0,0,1,52.694-3.516Zm1.564-.123a2.977,2.977,0,0,0,.18,1.063,2.293,2.293,0,0,0,.51.809,2.225,2.225,0,0,0,.8.514,2.889,2.889,0,0,0,1.042.18,2.744,2.744,0,0,0,1.02-.185,2.376,2.376,0,0,0,.8-.519,2.332,2.332,0,0,0,.527-.809,2.828,2.828,0,0,0,.189-1.055,2.694,2.694,0,0,0-.18-.989,2.475,2.475,0,0,0-.514-.813,2.415,2.415,0,0,0-.8-.554,2.6,2.6,0,0,0-1.046-.2,2.63,2.63,0,0,0-1.006.189,2.408,2.408,0,0,0-.8.527,2.442,2.442,0,0,0-.532.809A2.69,2.69,0,0,0,54.259-3.639Zm.448-5.845a2.1,2.1,0,0,0,.163.831,2.093,2.093,0,0,0,.448.668,2.106,2.106,0,0,0,.664.448,2.024,2.024,0,0,0,.809.163,2.009,2.009,0,0,0,.813-.167,2.1,2.1,0,0,0,.664-.453,2.194,2.194,0,0,0,.448-.668,2.03,2.03,0,0,0,.167-.822,2.155,2.155,0,0,0-.163-.844A2.065,2.065,0,0,0,58.275-11a2.077,2.077,0,0,0-.664-.444,2.078,2.078,0,0,0-.822-.163,2.1,2.1,0,0,0-.848.167,2.049,2.049,0,0,0-.659.453,1.979,1.979,0,0,0-.426.672A2.272,2.272,0,0,0,54.707-9.483Z" transform="translate(979 1681)" fill="#212429"/>
    <path id="Trazado_1034643" data-name="Trazado 1034643" d="M6.732-7.471H6.7a2.6,2.6,0,0,0-.461-.207,1.691,1.691,0,0,0-.567-.1,1.664,1.664,0,0,0-.976.33,3.587,3.587,0,0,0-.848.87,6.243,6.243,0,0,0-.668,1.235A8.434,8.434,0,0,0,2.733-3.92L1.89,0H.448L1.714-5.977q.079-.369.158-.773t.145-.809q.066-.4.119-.773T2.215-9H3.639q-.026.264-.062.558t-.07.571q-.035.277-.07.5t-.053.347h.035a9.7,9.7,0,0,1,.571-.905,4.182,4.182,0,0,1,.611-.69,2.589,2.589,0,0,1,.681-.444,1.924,1.924,0,0,1,.782-.158,2.481,2.481,0,0,1,.488.048q.242.048.435.1Zm10.153-.967a3.094,3.094,0,0,1-.708,2,2.25,2.25,0,0,1-1.753.712A4.373,4.373,0,0,1,12.1-6.68a2.674,2.674,0,0,0-1.4-.6q-1.23,0-1.283,1.547H8.228a3.008,3.008,0,0,1,.7-1.986A2.274,2.274,0,0,1,10.7-8.437a3.765,3.765,0,0,1,2.065.773,3.685,3.685,0,0,0,1.731.791,1.027,1.027,0,0,0,.861-.431A1.916,1.916,0,0,0,15.7-8.437Zm0,3.612a3.108,3.108,0,0,1-.708,2,2.25,2.25,0,0,1-1.753.712A4.373,4.373,0,0,1,12.1-3.059a2.611,2.611,0,0,0-1.4-.58q-1.23,0-1.283,1.529H8.228a3.031,3.031,0,0,1,.7-1.986A2.261,2.261,0,0,1,10.7-4.825a3.765,3.765,0,0,1,2.065.773,3.665,3.665,0,0,0,1.731.8,1.02,1.02,0,0,0,.861-.439A1.943,1.943,0,0,0,15.7-4.825ZM25.088,0H23.646V-10.89a3.336,3.336,0,0,1-.488.382,7.951,7.951,0,0,1-.721.426q-.4.211-.844.4a6.132,6.132,0,0,1-.866.29v-1.459a8.379,8.379,0,0,0,1.006-.356q.532-.224,1.046-.5t.971-.58a7.71,7.71,0,0,0,.791-.593h.545Z" transform="translate(996 1706)" fill="#212429"/>
    <path id="Trazado_1034644" data-name="Trazado 1034644" d="M10.635,4.122H.448V3.437L6.39-4.324.773-11.812V-12.6h9.51v1.354H2.936L8.156-4.359,2.663,2.777h7.972ZM21.273,2.865H19.99a11.232,11.232,0,0,1-2.725-7.673,11.658,11.658,0,0,1,2.725-7.8h1.3a11.845,11.845,0,0,0-2.76,7.778A11.638,11.638,0,0,0,21.273,2.865ZM29.5-9,26.478-4.447,29.449,0H27.77L26-2.918q-.167-.272-.4-.686h-.035q-.044.079-.413.686L23.358,0H21.7l3.067-4.412L21.829-9h1.679l1.74,3.076q.193.343.378.7h.035L27.911-9ZM31.013-.583a.533.533,0,0,1-.385-.154.519.519,0,0,1-.159-.39.527.527,0,0,1,.159-.392.528.528,0,0,1,.385-.156.543.543,0,0,1,.392.156.523.523,0,0,1,.161.392.52.52,0,0,1-.161.384A.538.538,0,0,1,31.013-.583ZM31.424,6h-.841V.75h.841ZM49.085-4.447h-9V-5.581h9ZM62.053-9,59.029-4.447,62,0H60.321L58.555-2.918q-.167-.272-.4-.686h-.035q-.044.079-.413.686L55.909,0H54.248l3.067-4.412L54.38-9h1.679L57.8-5.924q.193.343.378.7h.035L60.462-9ZM54.02,2h8.264V3H54.02Zm9.758.865H62.494a11.638,11.638,0,0,0,2.742-7.69,11.845,11.845,0,0,0-2.76-7.778h1.3a11.611,11.611,0,0,1,2.742,7.8A11.188,11.188,0,0,1,63.777,2.865Zm7.9-14.289a1.52,1.52,0,0,0-.105-.59,1.168,1.168,0,0,0-.287-.418,1.176,1.176,0,0,0-.428-.249,1.676,1.676,0,0,0-.533-.082,1.764,1.764,0,0,0-.482.067,2.343,2.343,0,0,0-.459.185,2.823,2.823,0,0,0-.431.282,3.111,3.111,0,0,0-.387.364v-.9a2.514,2.514,0,0,1,.792-.525,2.789,2.789,0,0,1,1.069-.182,2.58,2.58,0,0,1,.836.131,1.916,1.916,0,0,1,.666.382,1.766,1.766,0,0,1,.443.62,2.092,2.092,0,0,1,.161.846,2.9,2.9,0,0,1-.1.79,2.442,2.442,0,0,1-.3.666,3.216,3.216,0,0,1-.51.6,7.226,7.226,0,0,1-.723.584q-.518.369-.854.631a3.773,3.773,0,0,0-.533.49,1.421,1.421,0,0,0-.277.456,1.6,1.6,0,0,0-.079.525h3.66V-6H68.275v-.364a3.033,3.033,0,0,1,.1-.831,2.157,2.157,0,0,1,.338-.682,3.784,3.784,0,0,1,.618-.646q.382-.323.936-.728a5.915,5.915,0,0,0,.669-.549,2.852,2.852,0,0,0,.433-.523,1.878,1.878,0,0,0,.233-.531A2.288,2.288,0,0,0,71.674-11.424Zm8.254,7.838a2.177,2.177,0,0,1-1.573-.642A2.09,2.09,0,0,1,77.7-5.783a2.152,2.152,0,0,1,.659-1.569,2.14,2.14,0,0,1,1.573-.664,2.09,2.09,0,0,1,1.556.659,2.177,2.177,0,0,1,.642,1.573,2.118,2.118,0,0,1-.642,1.556A2.118,2.118,0,0,1,79.928-3.586ZM99.136,4.122H88.949V3.437l5.941-7.761-5.616-7.488V-12.6h9.51v1.354H91.437l5.221,6.891L91.164,2.777h7.972Zm10.638-1.257h-1.283a11.232,11.232,0,0,1-2.725-7.673,11.658,11.658,0,0,1,2.725-7.8h1.3a11.845,11.845,0,0,0-2.76,7.778A11.638,11.638,0,0,0,109.774,2.865ZM118.592-9l-4.14,10.441q-1.107,2.795-3.111,2.795a3.3,3.3,0,0,1-.94-.114V2.83a2.672,2.672,0,0,0,.853.158,1.767,1.767,0,0,0,1.635-1.3l.721-1.705L110.093-9h1.6l2.435,6.926q.044.132.185.686h.053q.044-.211.176-.668L117.1-9Zm1.371,8.417a.533.533,0,0,1-.384-.154.519.519,0,0,1-.159-.39.527.527,0,0,1,.159-.392.528.528,0,0,1,.384-.156.543.543,0,0,1,.392.156.523.523,0,0,1,.161.392.52.52,0,0,1-.161.384A.538.538,0,0,1,119.963-.583ZM120.373,6h-.841V.75h.841ZM140.09-4.447h-9V-5.581h9ZM153.646-9l-4.14,10.441Q148.4,4.236,146.4,4.236a3.3,3.3,0,0,1-.94-.114V2.83a2.672,2.672,0,0,0,.853.158,1.767,1.767,0,0,0,1.635-1.3l.721-1.705L145.147-9h1.6l2.435,6.926q.044.132.185.686h.053q.044-.211.176-.668L152.152-9ZM150.263,2h3.473V3h-3.473Zm4.967.865h-1.283a11.638,11.638,0,0,0,2.742-7.69,11.845,11.845,0,0,0-2.76-7.778h1.3a11.611,11.611,0,0,1,2.742,7.8A11.188,11.188,0,0,1,155.23,2.865Zm7.9-14.289a1.52,1.52,0,0,0-.105-.59,1.168,1.168,0,0,0-.287-.418,1.176,1.176,0,0,0-.428-.249,1.676,1.676,0,0,0-.533-.082,1.764,1.764,0,0,0-.482.067,2.343,2.343,0,0,0-.459.185,2.823,2.823,0,0,0-.431.282,3.111,3.111,0,0,0-.387.364v-.9a2.514,2.514,0,0,1,.792-.525,2.789,2.789,0,0,1,1.069-.182,2.58,2.58,0,0,1,.836.131,1.916,1.916,0,0,1,.666.382,1.766,1.766,0,0,1,.443.62,2.092,2.092,0,0,1,.161.846,2.9,2.9,0,0,1-.1.79,2.441,2.441,0,0,1-.3.666,3.216,3.216,0,0,1-.51.6,7.225,7.225,0,0,1-.723.584q-.518.369-.854.631a3.774,3.774,0,0,0-.533.49,1.421,1.421,0,0,0-.277.456,1.6,1.6,0,0,0-.079.525h3.66V-6h-4.537v-.364a3.033,3.033,0,0,1,.1-.831,2.156,2.156,0,0,1,.338-.682,3.784,3.784,0,0,1,.618-.646q.382-.323.936-.728a5.915,5.915,0,0,0,.669-.549,2.852,2.852,0,0,0,.433-.523,1.877,1.877,0,0,0,.233-.531A2.288,2.288,0,0,0,163.127-11.424Z" transform="translate(924 1653)" fill="#212429"/>
  </g>
</svg>
