<svg xmlns="http://www.w3.org/2000/svg" xmlns:xlink="http://www.w3.org/1999/xlink" width="116" height="116" viewBox="0 0 116 116">
  <defs>
    <filter id="Trazado_982547" x="0" y="0" width="116" height="116" filterUnits="userSpaceOnUse">
      <feOffset dy="3" input="SourceAlpha"/>
      <feGaussianBlur stdDeviation="3" result="blur"/>
      <feFlood flood-opacity="0.161"/>
      <feComposite operator="in" in2="blur"/>
      <feComposite in="SourceGraphic"/>
    </filter>
  </defs>
  <g id="Grupo_1176332" data-name="Grupo 1176332" transform="translate(-322 -3336.227)">
    <g id="Grupo_1176328" data-name="Grupo 1176328" transform="translate(132.967 1350.227)">
      <g id="Grupo_1172970" data-name="Grupo 1172970" transform="translate(198.033 1992)">
        <g id="Grupo_1171971" data-name="Grupo 1171971" transform="translate(0)">
          <g id="Grupo_1167337" data-name="Grupo 1167337" transform="translate(0)">
            <g id="Grupo_1166720" data-name="Grupo 1166720">
              <g id="Grupo_1164305" data-name="Grupo 1164305">
                <g id="Grupo_1163948" data-name="Grupo 1163948">
                  <g id="Grupo_1158168" data-name="Grupo 1158168">
                    <g id="Grupo_1152576" data-name="Grupo 1152576">
                      <g id="Grupo_1148633" data-name="Grupo 1148633">
                        <g id="Grupo_1148525" data-name="Grupo 1148525">
                          <g transform="matrix(1, 0, 0, 1, -9, -6)" filter="url(#Trazado_982547)">
                            <g id="Trazado_982547-2" data-name="Trazado 982547" transform="translate(9 6)" fill="#f2f7e5">
                              <path d="M 49 96.5 C 42.58687973022461 96.5 36.36638641357422 95.24432373046875 30.51132011413574 92.76782989501953 C 24.85522651672363 90.37550354003906 19.77522659301758 86.95037078857422 15.41242694854736 82.58757019042969 C 11.04962635040283 78.22476959228516 7.62449312210083 73.144775390625 5.232173442840576 67.48869323730469 C 2.755680084228516 61.63361358642578 1.5 55.41312026977539 1.5 49 C 1.5 42.58687973022461 2.755680084228516 36.36638641357422 5.232173442840576 30.51132011413574 C 7.62449312210083 24.85522651672363 11.04962635040283 19.77522659301758 15.41242694854736 15.41242694854736 C 19.77522659301758 11.04962635040283 24.85522651672363 7.62449312210083 30.51132011413574 5.232173442840576 C 36.36638641357422 2.755680084228516 42.58687973022461 1.5 49 1.5 C 55.41312026977539 1.5 61.63361358642578 2.755680084228516 67.48869323730469 5.232173442840576 C 73.144775390625 7.62449312210083 78.22476959228516 11.04962635040283 82.58757019042969 15.41242694854736 C 86.95037078857422 19.77522659301758 90.37550354003906 24.85522651672363 92.76782989501953 30.51132011413574 C 95.24432373046875 36.36638641357422 96.5 42.58687973022461 96.5 49 C 96.5 55.41312026977539 95.24432373046875 61.63362503051758 92.76782989501953 67.48869323730469 C 90.37550354003906 73.14478302001953 86.95037078857422 78.22478485107422 82.58757019042969 82.58757019042969 C 78.22478485107422 86.95037078857422 73.14478302001953 90.37550354003906 67.48869323730469 92.76782989501953 C 61.63362503051758 95.24432373046875 55.41312026977539 96.5 49 96.5 Z" stroke="none"/>
                              <path d="M 49 3 C 42.78872299194336 3 36.76481628417969 4.215812683105469 31.09564971923828 6.613677978515625 C 25.61835479736328 8.930366516113281 20.69861602783203 12.24755096435547 16.47309112548828 16.47309112548828 C 12.24755096435547 20.69861602783203 8.930366516113281 25.61835479736328 6.613677978515625 31.09564971923828 C 4.215812683105469 36.76481628417969 3 42.78872299194336 3 49 C 3 55.2112922668457 4.215812683105469 61.23518371582031 6.613677978515625 66.90437316894531 C 8.930366516113281 72.38164520263672 12.24755096435547 77.30138397216797 16.47309112548828 81.52692413330078 C 20.69861602783203 85.75244903564453 25.61835479736328 89.06963348388672 31.09564971923828 91.38632202148438 C 36.76481628417969 93.78418731689453 42.78872299194336 95 49 95 C 55.2112922668457 95 61.23518371582031 93.78418731689453 66.90437316894531 91.38632202148438 C 72.38164520263672 89.06963348388672 77.30138397216797 85.75244903564453 81.52692413330078 81.52692413330078 C 85.75244903564453 77.30138397216797 89.06963348388672 72.38164520263672 91.38632202148438 66.90437316894531 C 93.78418731689453 61.23518371582031 95 55.2112922668457 95 49 C 95 42.78872299194336 93.78418731689453 36.76481628417969 91.38632202148438 31.09564971923828 C 89.06963348388672 25.61835479736328 85.75244903564453 20.69861602783203 81.52692413330078 16.47309112548828 C 77.30138397216797 12.24755096435547 72.38164520263672 8.930366516113281 66.90437316894531 6.613677978515625 C 61.23518371582031 4.215812683105469 55.2112922668457 3 49 3 M 49 0 C 76.06196594238281 0 98 21.93804931640625 98 49 C 98 76.06196594238281 76.06196594238281 98 49 98 C 21.93804931640625 98 0 76.06196594238281 0 49 C 0 21.93804931640625 21.93804931640625 0 49 0 Z" stroke="none" fill="#86b60c"/>
                            </g>
                          </g>
                        </g>
                      </g>
                    </g>
                  </g>
                </g>
              </g>
            </g>
          </g>
        </g>
      </g>
    </g>
    <g id="Layer_33" data-name="Layer 33" transform="translate(347.939 3354.939)">
      <path id="Trazado_1034512" data-name="Trazado 1034512" d="M21,37h6.212v8.283H21Z" transform="translate(0.672 1.238)" fill="#f9b995"/>
      <path id="Trazado_1034513" data-name="Trazado 1034513" d="M30.955,44l-6.212,1.035L18.531,44,8.663,47.289A8.283,8.283,0,0,0,3,55.147V61.6H46.485V55.147a8.283,8.283,0,0,0-5.663-7.857Z" transform="translate(0.035 1.485)" fill="#d6e4e8"/>
      <path id="Trazado_1034514" data-name="Trazado 1034514" d="M39.9,47.289,30.035,44,29,61.6H45.566V55.147A8.283,8.283,0,0,0,39.9,47.289Z" transform="translate(0.955 1.485)" fill="#7a838b"/>
      <path id="Trazado_1034515" data-name="Trazado 1034515" d="M8.663,47.289,18.531,44l1.035,17.6H3V55.147a8.283,8.283,0,0,1,5.663-7.857Z" transform="translate(0.035 1.485)" fill="#7a838b"/>
      <path id="Trazado_1034516" data-name="Trazado 1034516" d="M35,21h3.106a2.071,2.071,0,0,1,2.071,2.071v2.071a4.141,4.141,0,0,1-4.141,4.141H35Z" transform="translate(1.167 0.672)" fill="#f9b995"/>
      <path id="Trazado_1034517" data-name="Trazado 1034517" d="M0,0H1.035A4.141,4.141,0,0,1,5.177,4.141V6.212A2.071,2.071,0,0,1,3.106,8.283H0Z" transform="translate(13.389 29.955) rotate(180)" fill="#f9b995"/>
      <path id="Trazado_1034518" data-name="Trazado 1034518" d="M12,15H36.849V27.424a12.424,12.424,0,0,1-24.849,0Z" transform="translate(0.354 0.46)" fill="#ffd3b6"/>
      <path id="Trazado_1034519" data-name="Trazado 1034519" d="M20,31h8.283A4.141,4.141,0,0,1,20,31Z" transform="translate(0.637 1.026)" fill="#f97878"/>
      <path id="Trazado_1034520" data-name="Trazado 1034520" d="M21.106,41,18,44.106l4.141,5.177,2.071-4.141Z" transform="translate(0.566 1.379)" fill="#baced3"/>
      <path id="Trazado_1034521" data-name="Trazado 1034521" d="M27.106,41l3.106,3.106-4.141,5.177L24,45.141Z" transform="translate(0.778 1.379)" fill="#baced3"/>
      <g id="Grupo_1176331" data-name="Grupo 1176331" transform="translate(12.354 3.035)">
        <path id="Trazado_1034522" data-name="Trazado 1034522" d="M28.566,3H20.283A8.283,8.283,0,0,0,12,11.283v8.283h1.338a4.142,4.142,0,0,0,3.845-2.6l1.029-2.574.414.518a12.424,12.424,0,0,0,9.7,4.659h8.521V11.283A8.283,8.283,0,0,0,28.566,3Z" transform="translate(-12 -3)" fill="#7a838b"/>
        <path id="Trazado_1034523" data-name="Trazado 1034523" d="M24.071,45,22,49.141l2.071,2.071,2.071-2.071Z" transform="translate(-11.646 -1.515)" fill="#7a838b"/>
        <path id="Trazado_1034524" data-name="Trazado 1034524" d="M24.071,47,22,61.5h4.141Z" transform="translate(-11.646 -1.444)" fill="#7a838b"/>
      </g>
      <path id="Trazado_1034525" data-name="Trazado 1034525" d="M37,51h8.283V61.354H37Z" transform="translate(1.238 1.733)" fill="#f97878"/>
      <path id="Trazado_1034526" data-name="Trazado 1034526" d="M45,43h8.283V61.637H45Z" transform="translate(1.521 1.45)" fill="#6dbc53"/>
      <path id="Trazado_1034527" data-name="Trazado 1034527" d="M53,47h8.283V61.5H53Z" transform="translate(1.804 1.592)" fill="#fcbe42"/>
      <circle id="Elipse_11556" data-name="Elipse 11556" cx="2" cy="2" r="2" transform="translate(40.061 38.061)" fill="#f97878"/>
      <circle id="Elipse_11557" data-name="Elipse 11557" cx="2" cy="2" r="2" transform="translate(49.061 30.061)" fill="#f97878"/>
      <circle id="Elipse_11558" data-name="Elipse 11558" cx="2" cy="2" r="2" transform="translate(57.061 38.061)" fill="#f97878"/>
      <path id="Trazado_1034528" data-name="Trazado 1034528" d="M29,22h2.071v3.106H29Z" transform="translate(0.955 0.707)"/>
      <path id="Trazado_1034529" data-name="Trazado 1034529" d="M17,22h2.071v3.106H17Z" transform="translate(0.531 0.707)"/>
      <path id="Trazado_1034530" data-name="Trazado 1034530" d="M29.354,31.035A1.035,1.035,0,0,0,28.318,30H20.035A1.035,1.035,0,0,0,19,31.035a5.177,5.177,0,0,0,10.354,0Zm-8.106,1.035h5.858a3.106,3.106,0,0,1-5.858,0Z" transform="translate(0.601 0.99)"/>
      <path id="Trazado_1034531" data-name="Trazado 1034531" d="M31.945,46.895l8.584,2.862c.224.075.443.159.656.255a7.179,7.179,0,0,1,.919.492l1.1-1.752c-.1-.064-.207-.128-.311-.189A9.388,9.388,0,0,0,42,48.108a8.045,8.045,0,0,0-.818-.311l-9.635-3.21L28.92,41.951V40.685a13.5,13.5,0,0,0,8.96-9.764,5.168,5.168,0,0,0,4.5-5.109V23.743a3.106,3.106,0,0,0-3.106-3.106H38.238V11.318A9.329,9.329,0,0,0,28.92,2H20.637a9.329,9.329,0,0,0-9.318,9.318v9.318H10.283a3.106,3.106,0,0,0-3.106,3.106v2.071a5.168,5.168,0,0,0,4.5,5.109,13.5,13.5,0,0,0,8.96,9.764v1.265l-2.631,2.63L8.371,47.79A9.3,9.3,0,0,0,2,56.632v6.454a1.035,1.035,0,0,0,1.035,1.035h32.1V62.051H31.053Zm-4.889,1.857L25.995,46.63,28,43.955l1.607,1.607Zm-2.278,2.517-.811-.811.811-1.622.811,1.622Zm14.5-28.562a1.035,1.035,0,0,1,1.035,1.035v2.071a3.106,3.106,0,0,1-2.114,2.929c.019-.286.043-.568.043-.858V22.707ZM13.389,11.318a7.257,7.257,0,0,1,7.248-7.248H28.92a7.257,7.257,0,0,1,7.248,7.248v7.248H28.679a11.333,11.333,0,0,1-8.894-4.275l-.414-.518a1.035,1.035,0,0,0-.806-.384,1.05,1.05,0,0,0-.151.011,1.035,1.035,0,0,0-.811.64l-1.029,2.573a3.091,3.091,0,0,1-2.883,1.953h-.3Zm-4.141,14.5V23.743a1.035,1.035,0,0,1,1.035-1.035h1.035v5.177c0,.29.025.573.043.858a3.106,3.106,0,0,1-2.114-2.929Zm4.141,2.071V20.637h.3A5.151,5.151,0,0,0,18.5,17.381l.388-.97a13.38,13.38,0,0,0,9.793,4.225h7.488v7.248a11.389,11.389,0,1,1-22.778,0Zm11.389,13.46a13.518,13.518,0,0,0,2.071-.176v.867L24.778,44.8l-2.071-2.761v-.867a13.518,13.518,0,0,0,2.071.176ZM21.56,43.955l2.006,2.674L22.5,48.752l-2.547-3.19ZM4.071,62.051V56.632a7.238,7.238,0,0,1,4.955-6.876l8.586-2.862.89,15.157Zm15.72-13.376,3.864,4.4-1.8,8.978H20.578Zm4.18,13.376.808-4.038.808,4.038Zm3.727,0-1.8-8.978,3.865-4.4-.788,13.377Z" transform="translate(0 0)"/>
      <path id="Trazado_1034532" data-name="Trazado 1034532" d="M61.884,46.141H54.637V43.035A1.035,1.035,0,0,0,53.6,42H45.318a1.035,1.035,0,0,0-1.035,1.035v7.248H37.035A1.035,1.035,0,0,0,36,51.318V61.672a1.035,1.035,0,0,0,1.035,1.035H61.884a1.035,1.035,0,0,0,1.035-1.035v-14.5A1.035,1.035,0,0,0,61.884,46.141ZM38.071,52.354h6.212v8.283H38.071Zm8.283-1.035V44.071h6.212V60.637H46.354Zm14.5,9.318H54.637V48.212h6.212Z" transform="translate(1.203 1.415)"/>
      <path id="Trazado_1034533" data-name="Trazado 1034533" d="M42.437,36.594a3.055,3.055,0,0,0-1.33-.311,3.106,3.106,0,1,0,3.106,3.106,3.055,3.055,0,0,0-.311-1.33L48.059,33.9a3,3,0,0,0,2.661,0l4.157,4.157a3.055,3.055,0,0,0-.311,1.33,3.106,3.106,0,1,0,3.106-3.106,3.055,3.055,0,0,0-1.33.311l-4.157-4.157a3.055,3.055,0,0,0,.311-1.33,3.106,3.106,0,0,0-6.212,0,3.055,3.055,0,0,0,.311,1.33Zm-1.33,3.831a1.035,1.035,0,1,1,1.035-1.035A1.035,1.035,0,0,1,41.106,40.424Zm16.566-2.071a1.035,1.035,0,1,1-1.035,1.035A1.035,1.035,0,0,1,57.672,38.354Zm-8.283-8.283a1.035,1.035,0,1,1-1.035,1.035A1.035,1.035,0,0,1,49.389,30.071Z" transform="translate(1.273 0.92)"/>
    </g>
  </g>
</svg>
